<?xml version="1.0" encoding="UTF-8" standalone="no"?>
<svg
   xmlns:dc="http://purl.org/dc/elements/1.1/"
   xmlns:cc="http://creativecommons.org/ns#"
   xmlns:rdf="http://www.w3.org/1999/02/22-rdf-syntax-ns#"
   xmlns:svg="http://www.w3.org/2000/svg"
   xmlns="http://www.w3.org/2000/svg"
   xmlns:sodipodi="http://sodipodi.sourceforge.net/DTD/sodipodi-0.dtd"
   xmlns:inkscape="http://www.inkscape.org/namespaces/inkscape"
   inkscape:version="1.0 (4035a4fb49, 2020-05-01)"
   inkscape:export-ydpi="96"
   inkscape:export-xdpi="96"
   inkscape:export-filename="C:\Users\Phillip\source\repos\roadblocks\roadblocks\webapp\src\assets\logo.png"
   sodipodi:docname="roadblocks_logo.svg"
   id="svg8"
   version="1.1"
   viewBox="0 0 342.51394 199.90349"
   height="199.90349mm"
   width="342.51395mm">
  <defs
     id="defs2">
    <rect
       id="rect26"
       height="197.22592"
       width="383.58112"
       y="-89.295204"
       x="-278.75632" />
    <rect
       x="-278.75632"
       y="-89.295204"
       width="383.58112"
       height="197.22592"
       id="rect98" />
    <filter
       id="filter130"
       style="color-interpolation-filters:sRGB"
       inkscape:menu-tooltip="Inner colorized shadow, outer black shadow"
       inkscape:menu="Shadows and Glows"
       inkscape:label="In and Out">
      <feGaussianBlur
         id="feGaussianBlur124"
         stdDeviation="4"
         in="SourceAlpha"
         result="result0" />
      <feOffset
         id="feOffset126"
         result="result4"
         dy="5"
         dx="5" />
      <feComposite
         id="feComposite128"
         result="result3"
         operator="xor"
         in2="result4"
         in="SourceGraphic" />
    </filter>
    <filter
       id="filter186"
       style="color-interpolation-filters:sRGB"
       inkscape:label="Dark and Glow"
       inkscape:menu="Shadows and Glows"
       inkscape:menu-tooltip="Darkens the edge with an inner blur and adds a flexible glow"
       height="1.5"
       y="-0.25">
      <feGaussianBlur
         id="feGaussianBlur176"
         result="result6"
         stdDeviation="5" />
      <feComposite
         id="feComposite178"
         in2="result6"
         operator="atop"
         in="SourceGraphic"
         result="result8" />
      <feComposite
         id="feComposite180"
         in="result8"
         in2="SourceAlpha"
         operator="over"
         result="result9" />
      <feColorMatrix
         id="feColorMatrix182"
         result="result10"
         values="1 0 0 0 0 0 1 0 0 0 0 0 1 0 0 0 0 0 1 0 " />
      <feBlend
         id="feBlend184"
         in2="result6"
         mode="normal"
         in="result10" />
    </filter>
    <filter
       id="filter200"
       style="color-interpolation-filters:sRGB"
       inkscape:label="Dark and Glow"
       inkscape:menu="Shadows and Glows"
       inkscape:menu-tooltip="Darkens the edge with an inner blur and adds a flexible glow"
       height="1.5"
       y="-0.25">
      <feGaussianBlur
         id="feGaussianBlur190"
         result="result6"
         stdDeviation="5" />
      <feComposite
         id="feComposite192"
         in2="result6"
         operator="atop"
         in="SourceGraphic"
         result="result8" />
      <feComposite
         id="feComposite194"
         in="result8"
         in2="SourceAlpha"
         operator="over"
         result="result9" />
      <feColorMatrix
         id="feColorMatrix196"
         result="result10"
         values="1 0 0 0 0 0 1 0 0 0 0 0 1 0 0 0 0 0 1 0 " />
      <feBlend
         id="feBlend198"
         in2="result6"
         mode="normal"
         in="result10" />
    </filter>
    <rect
       x="-278.75632"
       y="-89.295204"
       width="383.58112"
       height="197.22592"
       id="rect26-9" />
    <rect
       x="-278.75632"
       y="-89.295204"
       width="383.58112"
       height="197.22592"
       id="rect253" />
  </defs>
  <sodipodi:namedview
     inkscape:window-maximized="1"
     inkscape:window-y="-8"
     inkscape:window-x="-8"
     inkscape:window-height="1017"
     inkscape:window-width="1920"
     showguides="false"
     showgrid="false"
     inkscape:document-rotation="0"
     inkscape:current-layer="g96"
     inkscape:document-units="mm"
     inkscape:cy="444.76923"
     inkscape:cx="564.40234"
     inkscape:zoom="0.60889829"
     inkscape:pageshadow="2"
     inkscape:pageopacity="0.0"
     borderopacity="1.0"
     bordercolor="#666666"
     pagecolor="#ffffff"
     id="base" />
  <metadata
     id="metadata5">
    <rdf:RDF>
      <cc:Work
         rdf:about="">
        <dc:format>image/svg+xml</dc:format>
        <dc:type
           rdf:resource="http://purl.org/dc/dcmitype/StillImage" />
      </cc:Work>
    </rdf:RDF>
  </metadata>
  <g
     style="display:none"
     transform="translate(379.95631,208.17609)"
     id="layer1"
     inkscape:groupmode="layer"
     inkscape:label="Reference">
    <path
       style="fill:#fea5a5;stroke-width:0.264583"
       d="m -310.33273,-26.476181 c 0.19099,-0.07643 0.4192,-0.06703 0.50712,0.02088 0.0879,0.08792 -0.0684,0.150453 -0.34727,0.138964 -0.30822,-0.0127 -0.37092,-0.07539 -0.15985,-0.15985 z m 4.7625,0 c 0.19099,-0.07643 0.4192,-0.06703 0.50712,0.02088 0.0879,0.08792 -0.0683,0.150453 -0.34727,0.138964 -0.30822,-0.0127 -0.37092,-0.07539 -0.15985,-0.15985 z m 70.64375,0 c 0.19099,-0.07643 0.4192,-0.06703 0.50712,0.02088 0.0879,0.08792 -0.0684,0.150453 -0.34727,0.138964 -0.30822,-0.0127 -0.37092,-0.07539 -0.15985,-0.15985 z m 4.7625,0 c 0.19099,-0.07643 0.4192,-0.06703 0.50712,0.02088 0.0879,0.08792 -0.0683,0.150453 -0.34727,0.138964 -0.30822,-0.0127 -0.37092,-0.07539 -0.15985,-0.15985 z m 48.68333,0 c 0.191,-0.07643 0.41921,-0.06703 0.50712,0.02088 0.0879,0.08792 -0.0683,0.150453 -0.34726,0.138964 -0.30823,-0.0127 -0.37092,-0.07539 -0.15986,-0.15985 z m 4.7625,0 c 0.191,-0.07643 0.41921,-0.06703 0.50712,0.02088 0.0879,0.08792 -0.0684,0.150453 -0.34726,0.138964 -0.30823,-0.0127 -0.37092,-0.07539 -0.15986,-0.15985 z m 91.545836,0 c 0.191,-0.07643 0.41921,-0.06703 0.50713,0.02088 0.0879,0.08792 -0.0684,0.150453 -0.34727,0.138964 -0.30824,-0.0127 -0.37092,-0.07539 -0.15986,-0.15985 z m 5.29167,0 c 0.191,-0.07643 0.4192,-0.06703 0.50712,0.02088 0.0879,0.08792 -0.0684,0.150453 -0.34726,0.138964 -0.30824,-0.0127 -0.37092,-0.07539 -0.15986,-0.15985 z m -248.195706,-1.073491 c 0.9095,-0.05166 2.39778,-0.05166 3.30729,0 0.90951,0.05166 0.16536,0.09394 -1.65365,0.09394 -1.81901,0 -2.56315,-0.04227 -1.65364,-0.09394 z m 49.66535,-0.134832 c -0.0692,-0.181901 -0.0948,-16.58276 -0.0569,-36.446353 l 0.069,-36.115623 0.0652,36.309517 0.0652,36.309519 6.68073,0.07544 6.68073,0.07544 -6.68903,0.06139 c -5.15361,0.0473 -6.71793,-0.01453 -6.81489,-0.269336 z m 132.77586,0.134276 c 0.98832,-0.05105 2.53613,-0.05067 3.43959,7.94e-4 0.90345,0.05151 0.0948,0.09327 -1.79694,0.09281 -1.89177,-5.3e-4 -2.63096,-0.04261 -1.64265,-0.09365 z m 32.79733,-2.14e-4 c 1.12779,-0.0496 2.97326,-0.0496 4.10105,0 1.12778,0.0496 0.20505,0.09017 -2.05052,0.09017 -2.25558,0 -3.17831,-0.04058 -2.05053,-0.09017 z m -210.06333,-4.168957 c 0.002,-0.873125 0.0509,-1.198415 0.10977,-0.722866 0.0589,0.475549 0.0577,1.189924 -0.003,1.5875 -0.0604,0.397576 -0.10855,0.0085 -0.10707,-0.864634 z m 29.28677,-0.264584 c 0.49365,-0.509323 0.95708,-0.926041 1.02984,-0.926041 0.0728,0 -0.2716,0.416718 -0.76526,0.926041 -0.49365,0.509323 -0.95708,0.926042 -1.02984,0.926042 -0.0728,0 0.2716,-0.416719 0.76526,-0.926042 z m 46.0375,-0.264583 c -0.64268,-0.654844 -1.10898,-1.190625 -1.03622,-1.190625 0.0728,0 0.65812,0.535781 1.3008,1.190625 0.64268,0.654844 1.10898,1.190625 1.03622,1.190625 -0.0728,0 -0.65812,-0.535781 -1.3008,-1.190625 z m 53.83026,0.06615 -1.04588,-1.124479 1.12447,1.045884 c 1.04576,0.972661 1.24607,1.203074 1.04589,1.203074 -0.0432,0 -0.54924,-0.506016 -1.12448,-1.124479 z m 28.98432,0.463021 c 0.34178,-0.363803 0.68094,-0.661459 0.7537,-0.661459 0.0728,0 -0.14734,0.297656 -0.48911,0.661459 -0.34178,0.363802 -0.68094,0.661458 -0.7537,0.661458 -0.0728,0 0.14734,-0.297656 0.48911,-0.661458 z m -145.83502,-0.842198 c 0.19099,-0.07643 0.41919,-0.06703 0.50711,0.02088 0.0879,0.08792 -0.0684,0.150453 -0.34726,0.138965 -0.30823,-0.0127 -0.37092,-0.07539 -0.15985,-0.159851 z m 218.438016,-3.060407 -0.50404,-0.595312 0.59532,0.504029 c 0.55943,0.473662 0.71575,0.686596 0.50403,0.686596 -0.0502,0 -0.31811,-0.267891 -0.59531,-0.595313 z m -226.081356,-0.396875 -0.64143,-0.727604 0.7276,0.641432 c 0.68006,0.599517 0.84894,0.813777 0.64144,0.813777 -0.0474,0 -0.37482,-0.327422 -0.72761,-0.727605 z m 130.175,0 -0.64143,-0.727604 0.72761,0.641432 c 0.40018,0.35279 0.7276,0.680212 0.7276,0.727604 0,0.207508 -0.21426,0.03862 -0.81378,-0.641432 z m -54.23958,-0.529166 -0.64143,-0.727604 0.7276,0.641432 c 0.68006,0.599516 0.84894,0.813776 0.64143,0.813776 -0.0474,0 -0.37481,-0.327422 -0.7276,-0.727604 z m 171.272166,-4.167188 c 0.003,-0.582083 0.0571,-0.789053 0.12042,-0.459935 0.0633,0.329117 0.0609,0.805367 -0.005,1.058333 -0.0662,0.252965 -0.118,-0.01632 -0.11506,-0.598398 z m 7.0979,-0.551214 c 0.0127,-0.308226 0.0754,-0.370919 0.15986,-0.159853 0.0764,0.190994 0.067,0.4192 -0.0209,0.507119 -0.0879,0.08792 -0.15047,-0.06835 -0.13898,-0.347266 z m -99.956226,-1.36503 c 0.98832,-0.05105 2.53613,-0.05067 3.43959,7.93e-4 0.90345,0.05151 0.0948,0.09327 -1.79694,0.09281 -1.89177,-5.29e-4 -2.63097,-0.04261 -1.64265,-0.09365 z m -159.07084,-4.98497 c 0.0127,-0.308226 0.0754,-0.370919 0.15985,-0.159853 0.0764,0.190995 0.067,0.4192 -0.0209,0.507119 -0.0879,0.08792 -0.15045,-0.06835 -0.13896,-0.347266 z m 122.50208,-0.529167 c 0.0127,-0.308226 0.0754,-0.370919 0.15985,-0.159853 0.0764,0.190995 0.067,0.419201 -0.0209,0.507119 -0.0879,0.08792 -0.15046,-0.06835 -0.13897,-0.347266 z m 63.08224,-0.903993 c 0.71666,-0.727605 1.36256,-1.322917 1.43532,-1.322917 0.0728,0 -0.45407,0.595312 -1.17074,1.322917 -0.71666,0.727604 -1.36255,1.322916 -1.43531,1.322916 -0.0728,0 0.45407,-0.595312 1.17073,-1.322916 z m -117.32182,0.63941 c 0.0127,-0.308226 0.0754,-0.370919 0.15985,-0.159853 0.0764,0.190995 0.067,0.4192 -0.0209,0.507119 -0.0879,0.08792 -0.15045,-0.06835 -0.13896,-0.347266 z m 61.38333,0 c 0.0127,-0.308226 0.0754,-0.370919 0.15985,-0.159853 0.0764,0.190995 0.067,0.4192 -0.0209,0.507119 -0.0879,0.08792 -0.15046,-0.06835 -0.13897,-0.347266 z m -23.51722,-1.565452 c 0.005,-0.436563 0.0647,-0.583126 0.13177,-0.325694 0.0671,0.257431 0.0627,0.614619 -0.01,0.79375 -0.0725,0.179131 -0.12736,-0.03149 -0.12197,-0.468056 z m 149.553646,-0.463021 -0.77711,-0.859896 0.8599,0.777105 c 0.80156,0.724371 0.98153,0.942687 0.77711,0.942687 -0.0455,0 -0.43249,-0.386953 -0.8599,-0.859896 z m -142.400096,-0.463021 c 0,-0.509323 0.0544,-0.717682 0.121,-0.463021 0.0666,0.254662 0.0666,0.671381 0,0.926042 -0.0666,0.254662 -0.121,0.0463 -0.121,-0.463021 z m -83.62794,0 c 0,-0.363802 0.06,-0.51263 0.13345,-0.330729 0.0734,0.181901 0.0734,0.479557 0,0.661458 -0.0734,0.181901 -0.13345,0.03307 -0.13345,-0.330729 z m -29.85501,-1.322916 c 0,-0.945886 0.048,-1.332839 0.10671,-0.859896 0.0587,0.472942 0.0587,1.246849 0,1.719791 -0.0587,0.472943 -0.10671,0.08599 -0.10671,-0.859895 z m 37.03266,0.132291 c 0.002,-0.727604 0.0534,-0.993857 0.11418,-0.591674 0.0608,0.402182 0.0592,0.997495 -0.004,1.322916 -0.0628,0.325422 -0.11256,-0.0036 -0.11057,-0.731242 z m 38.36097,-0.396875 c 0,-0.654843 0.0516,-0.922734 0.11466,-0.595312 0.0631,0.327422 0.0631,0.863203 0,1.190625 -0.0631,0.327422 -0.11466,0.05953 -0.11466,-0.595313 z m 107.48106,-0.79375 c 0.26339,-0.291041 0.53842,-0.529166 0.61119,-0.529166 0.0728,0 -0.0832,0.238125 -0.3466,0.529166 -0.26339,0.291042 -0.53843,0.529167 -0.61119,0.529167 -0.0728,0 0.0832,-0.238125 0.3466,-0.529167 z m -69.39174,-0.79375 c 0,-0.509323 0.0544,-0.717682 0.121,-0.463021 0.0666,0.254662 0.0666,0.671381 0,0.926042 -0.0666,0.254662 -0.121,0.0463 -0.121,-0.463021 z m -76.45391,-0.529166 c 0,-0.654844 0.0516,-0.922735 0.11467,-0.595313 0.0631,0.327422 0.0631,0.863203 0,1.190625 -0.0631,0.327422 -0.11467,0.05953 -0.11467,-0.595312 z m 69.29055,0 c 0,-0.363802 0.0601,-0.512631 0.13345,-0.33073 0.0734,0.181902 0.0734,0.479558 0,0.661459 -0.0734,0.181901 -0.13345,0.03307 -0.13345,-0.330729 z m -76.46458,-0.79375 c 0,-0.363802 0.06,-0.512631 0.13345,-0.330729 0.0734,0.181901 0.0734,0.479557 0,0.661458 -0.0734,0.181901 -0.13345,0.03307 -0.13345,-0.330729 z m 92.84786,-0.418923 c 0.0127,-0.308226 0.0754,-0.370919 0.15985,-0.159853 0.0764,0.190994 0.067,0.4192 -0.0209,0.507119 -0.0879,0.08792 -0.15046,-0.06835 -0.13897,-0.347266 z m -54.23958,-0.529167 c 0.0127,-0.308226 0.0754,-0.370919 0.15985,-0.159853 0.0764,0.190995 0.067,0.419201 -0.0209,0.507119 -0.0879,0.08792 -0.15045,-0.06835 -0.13896,-0.347266 z m 7.14375,-0.264583 c 0.0127,-0.308226 0.0754,-0.370919 0.15985,-0.159853 0.0764,0.190994 0.067,0.4192 -0.0209,0.507119 -0.0879,0.08792 -0.15045,-0.06835 -0.13896,-0.347266 z m 110.04578,0.336132 c 0,-0.04554 0.38695,-0.432488 0.85989,-0.859896 l 0.8599,-0.777105 -0.77711,0.859896 c -0.72437,0.801544 -0.94268,0.981511 -0.94268,0.777105 z m -185.45203,-0.865299 c 0.0127,-0.308226 0.0754,-0.370919 0.15985,-0.159853 0.0764,0.190995 0.067,0.419201 -0.0209,0.507119 -0.0879,0.08792 -0.15045,-0.06835 -0.13896,-0.347266 z m 194.71245,-0.447595 c 0,-0.04002 0.92273,-0.962756 2.05052,-2.050521 l 2.05052,-1.977753 -1.97776,2.050521 c -1.83689,1.904479 -2.12328,2.171242 -2.12328,1.977753 z m -158.19995,-0.610738 c 0.0127,-0.308226 0.0754,-0.370919 0.15985,-0.159853 0.0764,0.190994 0.067,0.4192 -0.0209,0.507119 -0.0879,0.08792 -0.15045,-0.06835 -0.13896,-0.347266 z m 154.7493,-4.14514 c 0.64877,-0.691224 1.21431,-1.256771 1.25678,-1.256771 0.19867,0 -0.0114,0.237551 -1.17957,1.333974 l -1.25677,1.179568 z m 31.53826,-1.521354 c 0,-0.363802 0.0601,-0.51263 0.13345,-0.330729 0.0734,0.181901 0.0734,0.479557 0,0.661458 -0.0734,0.181901 -0.13345,0.03307 -0.13345,-0.330729 z m 0,-1.852083 c 0,-0.363802 0.0601,-0.51263 0.13345,-0.330729 0.0734,0.181901 0.0734,0.479557 0,0.661458 -0.0734,0.181901 -0.13345,0.03307 -0.13345,-0.330729 z m -122.16364,-2.711979 -0.7771,-0.859896 0.85989,0.777105 c 0.80155,0.724371 0.98152,0.942687 0.77711,0.942687 -0.0455,0 -0.43249,-0.386954 -0.8599,-0.859896 z m -96.68856,0.512521 c 0,-0.04553 0.38695,-0.432487 0.85989,-0.859895 l 0.8599,-0.777105 -0.77711,0.859895 c -0.72437,0.801545 -0.94268,0.981512 -0.94268,0.777105 z m 193.80729,-1.240125 c 0.71667,-0.727605 1.36256,-1.322917 1.43532,-1.322917 0.0728,0 -0.45407,0.595312 -1.17073,1.322917 -0.71667,0.727604 -1.36256,1.322916 -1.43532,1.322916 -0.0728,0 0.45407,-0.595312 1.17073,-1.322916 z m -44.33773,0.06614 -0.64143,-0.727604 0.7276,0.641432 c 0.40018,0.35279 0.7276,0.680212 0.7276,0.727604 0,0.207508 -0.21426,0.03862 -0.81377,-0.641432 z m 95.112596,-0.396875 -0.50403,-0.595312 0.59531,0.504029 c 0.55944,0.473662 0.71575,0.686596 0.50403,0.686596 -0.0502,0 -0.31811,-0.267891 -0.59531,-0.595313 z m -38.339446,-3.902604 c 1.59577,-1.600729 2.96092,-2.910416 3.03368,-2.910416 0.0728,0 -1.17333,1.309687 -2.7691,2.910416 -1.59576,1.600729 -2.96092,2.910417 -3.03368,2.910417 -0.0728,0 1.17333,-1.309688 2.7691,-2.910417 z m -104.13357,0.859896 -0.64143,-0.727604 0.7276,0.641432 c 0.40018,0.35279 0.72761,0.680212 0.72761,0.727604 0,0.207508 -0.21426,0.03862 -0.81378,-0.641432 z m 23.30336,0.363125 c 0,-0.05494 0.20836,-0.2633 0.46302,-0.463021 0.41965,-0.329107 0.429,-0.319749 0.0999,0.0999 -0.34565,0.44073 -0.56292,0.580888 -0.56292,0.363125 z m -99.51709,-0.892291 c -0.3291,-0.419646 -0.31974,-0.429004 0.0999,-0.0999 0.44073,0.345644 0.58089,0.562917 0.36313,0.562917 -0.055,0 -0.2633,-0.208359 -0.46303,-0.46302 z M -118.4602,-76.1694 c 0.49365,-0.509323 0.95708,-0.926041 1.02984,-0.926041 0.0728,0 -0.2716,0.416718 -0.76526,0.926041 -0.49365,0.509323 -0.95708,0.926042 -1.02984,0.926042 -0.0728,0 0.2716,-0.416719 0.76526,-0.926042 z m 3.24114,-1.122709 c 1.12779,-0.0496 2.97326,-0.0496 4.10105,0 1.12778,0.0496 0.20505,0.09018 -2.05052,0.09018 -2.25558,0 -3.17831,-0.04058 -2.05053,-0.09018 z m -194.31992,-1.042405 c 0.19099,-0.07643 0.4192,-0.06703 0.50712,0.02088 0.0879,0.08792 -0.0683,0.150452 -0.34727,0.138964 -0.30822,-0.0127 -0.37092,-0.07539 -0.15985,-0.159851 z m 74.6125,0 c 0.19099,-0.07643 0.4192,-0.06703 0.50712,0.02088 0.0879,0.08792 -0.0684,0.150452 -0.34727,0.138964 -0.30822,-0.0127 -0.37092,-0.07539 -0.15985,-0.159851 z m 53.975,0 c 0.191,-0.07643 0.4192,-0.06703 0.50712,0.02088 0.0879,0.08792 -0.0684,0.150452 -0.34727,0.138964 -0.30822,-0.0127 -0.37091,-0.07539 -0.15985,-0.159851 z m 5.29167,0 c 0.19099,-0.07643 0.4192,-0.06703 0.50712,0.02088 0.0879,0.08792 -0.0684,0.150452 -0.34727,0.138964 -0.30822,-0.0127 -0.37092,-0.07539 -0.15985,-0.159851 z m 89.693746,0 c 0.191,-0.07643 0.41921,-0.06703 0.50713,0.02088 0.0879,0.08792 -0.0684,0.150452 -0.34727,0.138964 -0.30824,-0.0127 -0.37092,-0.07539 -0.15986,-0.159851 z m 5.55625,0 c 0.191,-0.07643 0.41921,-0.06703 0.50713,0.02088 0.0879,0.08792 -0.0684,0.150452 -0.34727,0.138964 -0.30824,-0.0127 -0.37092,-0.07539 -0.15986,-0.159851 z"
       id="path54" />
    <path
       style="fill:#a3a3fe;stroke-width:0.264583"
       d="m -262.98411,-116.18094 c 0.47555,-0.0589 1.18992,-0.0577 1.5875,0.003 0.39757,0.0604 0.008,0.10855 -0.86464,0.10706 -0.87312,-0.002 -1.19841,-0.0509 -0.72286,-0.10976 z m 54.90134,0.008 c 0.25743,-0.0671 0.61462,-0.0627 0.79375,0.01 0.17913,0.0725 -0.0315,0.12736 -0.46806,0.12197 -0.43656,-0.005 -0.58312,-0.0647 -0.32569,-0.13177 z m 1.58246,10e-4 c 0.25466,-0.0665 0.67138,-0.0665 0.92604,0 0.25467,0.0666 0.0463,0.121 -0.46302,0.121 -0.50932,0 -0.71768,-0.0544 -0.46302,-0.121 z m -59.647,-0.26293 c 0.19099,-0.0764 0.4192,-0.067 0.50712,0.0209 0.0879,0.0879 -0.0684,0.15045 -0.34727,0.13897 -0.30823,-0.0127 -0.37092,-0.0754 -0.15985,-0.15986 z m 7.40833,0 c 0.19099,-0.0764 0.4192,-0.067 0.50712,0.0209 0.0879,0.0879 -0.0684,0.15045 -0.34727,0.13897 -0.30822,-0.0127 -0.37092,-0.0754 -0.15985,-0.15986 z m -96.66502,-14.23914 c -5e-5,-7.42156 0.0339,-10.49574 0.0753,-6.83151 0.0415,3.66423 0.0415,9.73642 8e-5,13.49375 -0.0414,3.75733 -0.0753,0.75933 -0.0754,-6.66224 z m 44.13373,12.11977 c 0.25743,-0.0671 0.61461,-0.0627 0.79375,0.01 0.17913,0.0725 -0.0315,0.12736 -0.46806,0.12197 -0.43656,-0.005 -0.58313,-0.0647 -0.32569,-0.13177 z m 1.5875,0 c 0.25743,-0.0671 0.61461,-0.0627 0.79375,0.01 0.17913,0.0725 -0.0315,0.12736 -0.46806,0.12197 -0.43656,-0.005 -0.58313,-0.0647 -0.32569,-0.13177 z m 70.06429,-0.76473 c 0.0127,-0.30823 0.0754,-0.37092 0.15985,-0.15985 0.0764,0.19099 0.067,0.4192 -0.0209,0.50711 -0.0879,0.0879 -0.15045,-0.0683 -0.13896,-0.34726 z m -9.81047,-1.30087 c 0.49365,-0.50932 0.95708,-0.92604 1.02984,-0.92604 0.0728,0 -0.27161,0.41672 -0.76526,0.92604 -0.49366,0.50932 -0.95709,0.92604 -1.02985,0.92604 -0.0728,0 0.27161,-0.41672 0.76527,-0.92604 z m 58.54498,-0.13229 c 0,-0.65485 0.0516,-0.92274 0.11466,-0.59531 0.0631,0.32742 0.0631,0.8632 0,1.19062 -0.0631,0.32742 -0.11466,0.0595 -0.11466,-0.59531 z m -55.59279,0.26458 c 0,-0.3638 0.06,-0.51263 0.13345,-0.33073 0.0734,0.1819 0.0734,0.47956 0,0.66146 -0.0734,0.1819 -0.13345,0.0331 -0.13345,-0.33073 z m 26.64739,-0.19844 c -0.32911,-0.41964 -0.31975,-0.429 0.0999,-0.0999 0.25466,0.19972 0.46302,0.40808 0.46302,0.46302 0,0.21776 -0.21728,0.0776 -0.56292,-0.36313 z m -20.03281,-1.12447 c 0,-0.36381 0.0601,-0.51263 0.13345,-0.33073 0.0734,0.1819 0.0734,0.47955 0,0.66145 -0.0734,0.18191 -0.13345,0.0331 -0.13345,-0.33072 z m -23.12667,-0.17523 c 0.1819,-0.0734 0.47956,-0.0734 0.66146,0 0.1819,0.0734 0.0331,0.13345 -0.33073,0.13345 -0.3638,0 -0.51263,-0.06 -0.33073,-0.13345 z m 2.91042,0 c 0.1819,-0.0734 0.47955,-0.0734 0.66145,0 0.18191,0.0734 0.0331,0.13345 -0.33072,0.13345 -0.36381,0 -0.51263,-0.06 -0.33073,-0.13345 z m 38.39698,-0.55238 c -0.32911,-0.41964 -0.31975,-0.429 0.0999,-0.0999 0.25466,0.19972 0.46302,0.40808 0.46302,0.46302 0,0.21776 -0.21727,0.0776 -0.56291,-0.36313 z m 15.05359,0.27127 c 0.47555,-0.0589 1.18992,-0.0577 1.5875,0.003 0.39758,0.0604 0.008,0.10855 -0.86463,0.10707 -0.87313,-0.002 -1.19842,-0.0509 -0.72287,-0.10977 z m -119.79485,-2.85096 c -0.64268,-0.65484 -1.10898,-1.19062 -1.03622,-1.19062 0.0728,0 0.65813,0.53578 1.30081,1.19062 0.64268,0.65485 1.10898,1.19063 1.03622,1.19063 -0.0728,0 -0.65812,-0.53578 -1.30081,-1.19063 z m 57.00107,0.33073 -0.77711,-0.85989 0.8599,0.7771 c 0.47294,0.42741 0.8599,0.81436 0.8599,0.8599 0,0.2044 -0.21832,0.0245 -0.94269,-0.77711 z m -25.25107,0.24794 c 0,-0.0455 0.38696,-0.43249 0.8599,-0.85989 l 0.8599,-0.77711 -0.77711,0.8599 c -0.72437,0.80154 -0.94269,0.98151 -0.94269,0.7771 z m 42.86251,-0.0171 c 0,-0.0549 0.20836,-0.2633 0.46302,-0.46302 0.41964,-0.32911 0.429,-0.31975 0.0999,0.0999 -0.34564,0.44074 -0.56291,0.5809 -0.56291,0.36314 z m 36.49825,-1.42144 -0.9118,-0.99219 0.99219,0.9118 c 0.92351,0.84868 1.11384,1.07258 0.9118,1.07258 -0.0442,0 -0.4907,-0.44649 -0.99219,-0.99219 z m -35.17534,0.0985 c 0,-0.0549 0.20836,-0.2633 0.46302,-0.46302 0.41965,-0.32911 0.42901,-0.31975 0.0999,0.0999 -0.34564,0.44073 -0.56292,0.58089 -0.56292,0.36313 z m -28.55411,-3.49403 c 0.0127,-0.30822 0.0754,-0.37092 0.15985,-0.15985 0.0764,0.19099 0.067,0.4192 -0.0209,0.50712 -0.0879,0.0879 -0.15046,-0.0683 -0.13897,-0.34727 z m 32.01458,-5.82083 c 0.0127,-0.30823 0.0754,-0.37092 0.15986,-0.15985 0.0764,0.19099 0.067,0.41919 -0.0209,0.50712 -0.0879,0.0879 -0.15045,-0.0684 -0.13896,-0.34727 z m -23.30422,-2.3097 c 0,-0.0455 0.38696,-0.43249 0.8599,-0.8599 l 0.85989,-0.7771 -0.7771,0.85989 c -0.72437,0.80155 -0.94269,0.98151 -0.94269,0.77711 z m -17.17703,-1.12988 c 0.0127,-0.30823 0.0754,-0.37092 0.15985,-0.15986 0.0764,0.191 0.067,0.4192 -0.0209,0.50712 -0.0879,0.0879 -0.15045,-0.0684 -0.13897,-0.34726 z m 40.77498,-1.49383 -0.05,-1.78046 -5.35781,-0.0774 -5.35782,-0.0774 5.36612,-0.0603 c 4.32585,-0.0486 5.39292,0.01 5.5044,0.3 0.0761,0.1982 0.0948,1.0614 0.0417,1.91823 l -0.0965,1.55788 z m 19.05155,0.98671 c 0.005,-0.43657 0.0647,-0.58313 0.13177,-0.3257 0.0671,0.25743 0.0627,0.61462 -0.01,0.79375 -0.0725,0.17913 -0.12737,-0.0315 -0.12197,-0.46805 z m 7.13394,-0.13229 c 0,-0.36381 0.0601,-0.51263 0.13346,-0.33073 0.0734,0.1819 0.0734,0.47955 0,0.66145 -0.0734,0.18191 -0.13346,0.0331 -0.13346,-0.33072 z m 29.63334,0 c 0,-0.36381 0.06,-0.51263 0.13345,-0.33073 0.0734,0.1819 0.0734,0.47955 0,0.66145 -0.0734,0.18191 -0.13345,0.0331 -0.13345,-0.33072 z m -142.33603,-2.24896 c 0.005,-0.43657 0.0647,-0.58313 0.13177,-0.3257 0.0671,0.25743 0.0627,0.61462 -0.01,0.79375 -0.0725,0.17913 -0.12736,-0.0315 -0.12197,-0.46805 z m 57.89217,0 c 0.34177,-0.3638 0.68094,-0.66146 0.7537,-0.66146 0.0728,0 -0.14734,0.29766 -0.48912,0.66146 -0.34177,0.3638 -0.68094,0.66146 -0.7537,0.66146 -0.0728,0 0.14734,-0.29766 0.48912,-0.66146 z m 14.76706,-0.31303 c 0.19099,-0.0764 0.4192,-0.067 0.50712,0.0209 0.0879,0.0879 -0.0684,0.15045 -0.34727,0.13897 -0.30823,-0.0127 -0.37092,-0.0754 -0.15985,-0.15985 z m 32.90952,-2.33281 c 0.005,-0.43656 0.0647,-0.58312 0.13177,-0.32569 0.0671,0.25743 0.0627,0.61462 -0.01,0.79375 -0.0725,0.17913 -0.12737,-0.0315 -0.12197,-0.46806 z m 7.13394,-0.39687 c 0,-0.3638 0.0601,-0.51263 0.13346,-0.33073 0.0734,0.1819 0.0734,0.47956 0,0.66146 -0.0734,0.1819 -0.13346,0.0331 -0.13346,-0.33073 z m -112.4688,-0.15434 c 0.0127,-0.30823 0.0754,-0.37092 0.15985,-0.15985 0.0764,0.19099 0.067,0.41919 -0.0209,0.50712 -0.0879,0.0879 -0.15045,-0.0684 -0.13896,-0.34727 z m 105.56875,-2.11667 c 0.0127,-0.30822 0.0754,-0.37092 0.15985,-0.15985 0.0764,0.19099 0.067,0.4192 -0.0209,0.50712 -0.0879,0.0879 -0.15046,-0.0683 -0.13897,-0.34727 z m 36.54319,-0.24253 c 0.005,-0.43657 0.0647,-0.58313 0.13178,-0.3257 0.0671,0.25743 0.0627,0.61462 -0.01,0.79375 -0.0725,0.17913 -0.12736,-0.0315 -0.12197,-0.46805 z m -29.39944,-0.022 c 0.0127,-0.30823 0.0754,-0.37092 0.15985,-0.15986 0.0764,0.191 0.067,0.4192 -0.0209,0.50712 -0.0879,0.0879 -0.15046,-0.0683 -0.13897,-0.34726 z m -40.56828,-0.0209 c 0.1819,-0.0734 0.47955,-0.0734 0.66145,0 0.18191,0.0734 0.0331,0.13345 -0.33072,0.13345 -0.36381,0 -0.51263,-0.06 -0.33073,-0.13345 z m 20.75522,-6.57165 c 0.005,-0.43656 0.0647,-0.58312 0.13178,-0.32569 0.0671,0.25743 0.0627,0.61462 -0.01,0.79375 -0.0725,0.17913 -0.12736,-0.0315 -0.12197,-0.46806 z m -122.17709,-7.14375 c 2.2e-4,-3.05593 0.0387,-4.26985 0.0856,-2.69759 0.0469,1.57225 0.0467,4.07257 -4e-4,5.55625 -0.0471,1.48368 -0.0854,0.19728 -0.0852,-2.85866 z m 11.52968,4.53032 c 0,-0.0549 0.20836,-0.2633 0.46302,-0.46302 0.41964,-0.32911 0.429,-0.31975 0.0999,0.0999 -0.34564,0.44073 -0.56291,0.58089 -0.56291,0.36313 z m 134.40833,-0.79375 c 0,-0.0549 0.20836,-0.2633 0.46302,-0.46302 0.41965,-0.32911 0.42901,-0.31975 0.0999,0.0999 -0.34564,0.44073 -0.56292,0.58089 -0.56292,0.36313 z m 21.3975,-1.68604 c -0.3291,-0.41965 -0.31975,-0.42901 0.0999,-0.0999 0.44073,0.34564 0.58089,0.56292 0.36312,0.56292 -0.0549,0 -0.2633,-0.20836 -0.46302,-0.46302 z m -100.54167,-0.26459 c -0.3291,-0.41964 -0.31974,-0.429 0.0999,-0.0999 0.25466,0.19972 0.46302,0.40808 0.46302,0.46302 0,0.21776 -0.21727,0.0776 -0.56292,-0.36313 z m 80.73167,0.36313 c 0,-0.0549 0.20836,-0.2633 0.46302,-0.46302 0.41965,-0.32911 0.42901,-0.31975 0.0999,0.0999 -0.34564,0.44073 -0.56292,0.58089 -0.56292,0.36313 z m -34.68044,-0.89229 -0.64143,-0.72761 0.7276,0.64143 c 0.40018,0.35279 0.72761,0.68022 0.72761,0.72761 0,0.2075 -0.21426,0.0386 -0.81378,-0.64143 z m -90.78167,-1.56981 c 0.191,-0.0764 0.4192,-0.067 0.50712,0.0209 0.0879,0.0879 -0.0684,0.15045 -0.34727,0.13896 -0.30822,-0.0127 -0.37091,-0.0754 -0.15985,-0.15985 z m 1.69432,-3.43523 c -0.041,-2.49462 -0.15111,-3.52157 -0.38794,-3.61713 -0.25904,-0.10453 -0.25724,-0.13798 0.008,-0.15434 0.54224,-0.0334 0.60906,0.47536 0.52048,3.96254 l -0.0836,3.29261 z m 118.07925,2.29306 c 0.26339,-0.29105 0.53842,-0.52917 0.61118,-0.52917 0.0728,0 -0.0832,0.23812 -0.3466,0.52917 -0.26339,0.29104 -0.53842,0.52916 -0.61118,0.52916 -0.0728,0 0.0832,-0.23812 0.3466,-0.52916 z m 14.62297,0.0728 c 0.47555,-0.0589 1.18992,-0.0577 1.5875,0.003 0.39758,0.0604 0.008,0.10855 -0.86463,0.10706 -0.87313,-0.002 -1.19842,-0.0509 -0.72287,-0.10976 z m -54.107,-0.25619 c 0.25743,-0.0671 0.61462,-0.0627 0.79375,0.01 0.17913,0.0725 -0.0315,0.12736 -0.46805,0.12197 -0.43657,-0.005 -0.58313,-0.0647 -0.3257,-0.13177 z m 2.11163,0.001 c 0.25467,-0.0666 0.67139,-0.0666 0.92605,0 0.25466,0.0666 0.0463,0.121 -0.46302,0.121 -0.50933,0 -0.71769,-0.0545 -0.46303,-0.121 z m -14.61822,-1.00833 c 0.49365,-0.50932 0.95708,-0.92604 1.02984,-0.92604 0.0728,0 -0.27161,0.41672 -0.76526,0.92604 -0.49366,0.50932 -0.95709,0.92604 -1.02985,0.92604 -0.0728,0 0.27161,-0.41672 0.76527,-0.92604 z m 28.29039,-0.33073 -0.64144,-0.7276 0.72761,0.64143 c 0.68005,0.59952 0.84894,0.81378 0.64143,0.81378 -0.0474,0 -0.37481,-0.32743 -0.7276,-0.72761 z m 51.31544,-0.26458 c -0.32911,-0.41965 -0.31975,-0.429 0.0999,-0.0999 0.25466,0.19972 0.46302,0.40808 0.46302,0.46302 0,0.21777 -0.21728,0.0776 -0.56292,-0.36312 z m -120.13669,-0.24689 c 0.19099,-0.0764 0.41919,-0.067 0.50711,0.0209 0.0879,0.0879 -0.0684,0.15045 -0.34726,0.13896 -0.30823,-0.0127 -0.37092,-0.0754 -0.15985,-0.15985 z m 5.29166,0 c 0.191,-0.0764 0.4192,-0.067 0.50712,0.0209 0.0879,0.0879 -0.0683,0.15045 -0.34726,0.13896 -0.30823,-0.0127 -0.37092,-0.0754 -0.15986,-0.15985 z m 45.24375,-3.70416 c 0.191,-0.0764 0.4192,-0.067 0.50712,0.0209 0.0879,0.0879 -0.0684,0.15046 -0.34726,0.13897 -0.30823,-0.0127 -0.37092,-0.0754 -0.15986,-0.15985 z m 8.20209,0 c 0.19099,-0.0764 0.4192,-0.067 0.50712,0.0209 0.0879,0.0879 -0.0684,0.15046 -0.34727,0.13897 -0.30823,-0.0127 -0.37092,-0.0754 -0.15985,-0.15985 z m 52.3875,0 c 0.19099,-0.0764 0.4192,-0.067 0.50712,0.0209 0.0879,0.0879 -0.0684,0.15046 -0.34727,0.13897 -0.30823,-0.0127 -0.37092,-0.0754 -0.15985,-0.15985 z m -57.43112,-0.25908 c 0.1819,-0.0734 0.47955,-0.0734 0.66145,0 0.18191,0.0734 0.0331,0.13346 -0.33072,0.13346 -0.36381,0 -0.51263,-0.0601 -0.33073,-0.13346 z m 1.46024,-0.008 c 0.25743,-0.0671 0.61462,-0.0627 0.79375,0.01 0.17913,0.0725 -0.0315,0.12736 -0.46806,0.12197 -0.43656,-0.005 -0.58312,-0.0647 -0.32569,-0.13177 z m 51.47296,0.003 c 0.191,-0.0764 0.4192,-0.067 0.50712,0.0209 0.0879,0.0879 -0.0683,0.15045 -0.34727,0.13896 -0.30822,-0.0127 -0.37092,-0.0754 -0.15985,-0.15985 z m 1.0418,0.006 c 0.1819,-0.0734 0.47955,-0.0734 0.66146,0 0.1819,0.0734 0.0331,0.13345 -0.33073,0.13345 -0.36381,0 -0.51263,-0.0601 -0.33073,-0.13345 z m 16.01829,-21.71706 c 0.98832,-0.051 2.53613,-0.0507 3.43959,8.5e-4 0.90345,0.0515 0.0948,0.0933 -1.79694,0.0928 -1.89178,-4.5e-4 -2.63097,-0.0426 -1.64265,-0.0936 z"
       id="path52" />
    <path
       style="fill:#fe7171;stroke-width:0.264583"
       d="m -306.36398,-26.476181 c 0.19099,-0.07643 0.4192,-0.06703 0.50712,0.02088 0.0879,0.08792 -0.0684,0.150453 -0.34727,0.138964 -0.30822,-0.0127 -0.37092,-0.07539 -0.15985,-0.15985 z m 75.40625,0 c 0.19099,-0.07643 0.4192,-0.06703 0.50712,0.02088 0.0879,0.08792 -0.0684,0.150453 -0.34727,0.138964 -0.30822,-0.0127 -0.37092,-0.07539 -0.15985,-0.15985 z m 50.27083,0 c 0.191,-0.07643 0.41921,-0.06703 0.50712,0.02088 0.0879,0.08792 -0.0684,0.150453 -0.34726,0.138964 -0.30823,-0.0127 -0.37092,-0.07539 -0.15986,-0.15985 z m 96.308336,0 c 0.191,-0.07643 0.41921,-0.06703 0.50713,0.02088 0.0879,0.08792 -0.0684,0.150453 -0.34727,0.138964 -0.30824,-0.0127 -0.37092,-0.07539 -0.15986,-0.15985 z m 3.70417,0 c 0.191,-0.07643 0.4192,-0.06703 0.50712,0.02088 0.0879,0.08792 -0.0684,0.150453 -0.34726,0.138964 -0.30824,-0.0127 -0.37092,-0.07539 -0.15986,-0.15985 z M -264.91079,-63.866274 c 0,-20.009114 0.0314,-28.194664 0.0698,-18.190104 0.0384,10.004557 0.0384,26.375651 0,36.380208 -0.0384,10.004557 -0.0698,1.81901 -0.0698,-18.190104 z m 117.47501,0 c 0,-20.009114 0.0314,-28.194664 0.0698,-18.190104 0.0384,10.004557 0.0384,26.375651 0,36.380208 -0.0384,10.004557 -0.0698,1.81901 -0.0698,-18.190104 z m 79.510996,32.411458 c 0.34176,-0.363802 0.68093,-0.661458 0.75369,-0.661458 0.0728,0 -0.14735,0.297656 -0.48911,0.661458 -0.34176,0.363802 -0.68093,0.661458 -0.75369,0.661458 -0.0728,0 0.14734,-0.297656 0.48911,-0.661458 z m -111.053826,-0.844812 c 0.25744,-0.06708 0.61462,-0.06267 0.79375,0.0098 0.17914,0.07248 -0.0315,0.127362 -0.46805,0.12197 -0.43656,-0.0054 -0.58313,-0.06469 -0.3257,-0.131773 z m -144.00451,-1.552054 c 0,-0.37239 0.10788,-0.610396 0.23974,-0.528902 0.13186,0.08149 0.17751,0.386175 0.10144,0.677074 -0.19039,0.728014 -0.34118,0.662525 -0.34118,-0.148172 z m 249.634376,-0.910426 c 0.26339,-0.291041 0.53843,-0.529166 0.61119,-0.529166 0.0728,0 -0.0832,0.238125 -0.34661,0.529166 -0.26339,0.291042 -0.53843,0.529167 -0.61119,0.529167 -0.0728,0 0.0832,-0.238125 0.34661,-0.529167 z m -96.440626,-0.926041 c 0.34178,-0.363802 0.68094,-0.661459 0.7537,-0.661459 0.0728,0 -0.14734,0.297657 -0.48912,0.661459 -0.34177,0.363802 -0.68094,0.661458 -0.7537,0.661458 -0.0728,0 0.14735,-0.297656 0.48912,-0.661458 z m -129.64584,0.314084 c 0,-0.04553 0.38696,-0.432488 0.8599,-0.859896 l 0.8599,-0.777105 -0.77711,0.859896 c -0.72437,0.801544 -0.94269,0.981511 -0.94269,0.777105 z m 226.449576,-10.963563 c -0.32909,-0.419645 -0.31975,-0.429004 0.0999,-0.0999 0.44072,0.345643 0.58089,0.562916 0.36311,0.562916 -0.0549,0 -0.26328,-0.208359 -0.46302,-0.46302 z m -127.474516,-2.601736 c 0.0127,-0.308226 0.0754,-0.370919 0.15985,-0.159853 0.0764,0.190995 0.067,0.419201 -0.0209,0.507119 -0.0879,0.08792 -0.15046,-0.06835 -0.13897,-0.347266 z m -122.74578,-1.168577 c 0,-0.363802 0.06,-0.51263 0.13345,-0.330729 0.0734,0.181901 0.0734,0.479557 0,0.661458 -0.0734,0.181901 -0.13345,0.03307 -0.13345,-0.330729 z m 29.87703,0.110244 c 0.0127,-0.308226 0.0754,-0.370919 0.15985,-0.159853 0.0764,0.190995 0.067,0.4192 -0.0209,0.507119 -0.0879,0.08792 -0.15046,-0.06835 -0.13897,-0.347266 z m 45.52922,-0.903994 c 0,-0.363802 0.0601,-0.51263 0.13345,-0.330729 0.0734,0.181901 0.0734,0.479557 0,0.661458 -0.0734,0.181901 -0.13345,0.03307 -0.13345,-0.330729 z m 112.67073,-0.396875 c 0.49365,-0.509323 0.95708,-0.926041 1.02984,-0.926041 0.0728,0 -0.2716,0.416718 -0.76526,0.926041 -0.49365,0.509323 -0.95708,0.926042 -1.02984,0.926042 -0.0728,0 0.2716,-0.416719 0.76526,-0.926042 z m -58.3861,-1.058333 c 0.001,-1.018646 0.049,-1.402943 0.10627,-0.853996 0.0573,0.54895 0.0563,1.382387 -0.002,1.852084 -0.0584,0.469699 -0.10532,0.02056 -0.10414,-0.998088 z m -16.16502,-0.132292 c 0,-0.509323 0.0544,-0.717682 0.121,-0.463021 0.0666,0.254662 0.0666,0.671381 0,0.926042 -0.0666,0.254662 -0.121,0.0463 -0.121,-0.463021 z m -38.11961,-1.5875 c 0,-0.363802 0.0601,-0.51263 0.13345,-0.330729 0.0734,0.181901 0.0734,0.479557 0,0.661458 -0.0734,0.181902 -0.13345,0.03307 -0.13345,-0.330729 z m -75.40625,-0.264583 c 0,-0.363802 0.06,-0.51263 0.13345,-0.330729 0.0734,0.181901 0.0734,0.479557 0,0.661458 -0.0734,0.181901 -0.13345,0.03307 -0.13345,-0.330729 z m 183.57906,0.429271 c 0,-0.05494 0.20836,-0.263301 0.46302,-0.463021 0.41965,-0.329108 0.42901,-0.319749 0.0999,0.0999 -0.34565,0.440729 -0.56292,0.580887 -0.56292,0.363125 z m 42.313306,-3.008958 -0.64143,-0.727605 0.7276,0.641432 c 0.68006,0.599517 0.84894,0.813777 0.64143,0.813777 -0.0474,0 -0.37481,-0.327422 -0.7276,-0.727604 z m -38.079976,-1.521355 c 0.34178,-0.363802 0.68094,-0.661458 0.7537,-0.661458 0.0728,0 -0.14734,0.297656 -0.48911,0.661458 -0.34178,0.363802 -0.68094,0.661459 -0.7537,0.661459 -0.0728,0 0.14734,-0.297657 0.48911,-0.661459 z m 5.02709,-5.242165 c 0,-0.04553 0.38695,-0.432488 0.85989,-0.859896 l 0.8599,-0.777105 -0.7771,0.859896 c -0.72438,0.801544 -0.94269,0.981511 -0.94269,0.777105 z m 30.18337,-1.129882 c 0.0127,-0.308227 0.0754,-0.37092 0.15987,-0.159854 0.0764,0.190995 0.067,0.419201 -0.0209,0.507119 -0.0879,0.08792 -0.15046,-0.06835 -0.13898,-0.347265 z m -17.21879,-3.946702 c 0.93748,-0.945886 1.76404,-1.719792 1.8368,-1.719792 0.0728,0 -0.63474,0.773906 -1.57221,1.719792 -0.93748,0.945885 -1.76404,1.719791 -1.8368,1.719791 -0.0728,0 0.63474,-0.773906 1.57221,-1.719791 z m -125.14792,0.264583 c 0.34178,-0.363802 0.68094,-0.661458 0.7537,-0.661458 0.0728,0 -0.14734,0.297656 -0.48911,0.661458 -0.34178,0.363802 -0.68094,0.661458 -0.7537,0.661458 -0.0728,0 0.14734,-0.297656 0.48911,-0.661458 z m 54.37188,-0.132292 c 0.26339,-0.291041 0.53842,-0.529166 0.61118,-0.529166 0.0728,0 -0.0832,0.238125 -0.3466,0.529166 -0.26339,0.291042 -0.53842,0.529167 -0.61118,0.529167 -0.0728,0 0.0832,-0.238125 0.3466,-0.529167 z m 65.21979,-2.778125 c 0.49366,-0.509323 0.95709,-0.926041 1.02985,-0.926041 0.0728,0 -0.27161,0.416718 -0.76526,0.926041 -0.49366,0.509323 -0.95709,0.926042 -1.02985,0.926042 -0.0728,0 0.27161,-0.416719 0.76526,-0.926042 z m -109.73594,-1.108427 c 0.25466,-0.06655 0.67138,-0.06655 0.92604,0 0.25467,0.06655 0.0463,0.121002 -0.46302,0.121002 -0.50932,0 -0.71768,-0.05445 -0.46302,-0.121002 z m 53.975,0 c 0.25466,-0.06655 0.67138,-0.06655 0.92604,0 0.25467,0.06655 0.0463,0.121002 -0.46302,0.121002 -0.50932,0 -0.71768,-0.05445 -0.46302,-0.121002 z m 14.71677,-0.280635 c -0.3291,-0.419645 -0.31974,-0.429004 0.0999,-0.0999 0.25466,0.19972 0.46302,0.40808 0.46302,0.463021 0,0.217762 -0.21727,0.0776 -0.56292,-0.363125 z m -156.86417,0.09854 c 0,-0.05494 0.20836,-0.2633 0.46303,-0.463021 0.41964,-0.329107 0.429,-0.319749 0.0999,0.0999 -0.34564,0.440729 -0.56292,0.580887 -0.56292,0.363124 z m 236.471356,-0.07533 c 0.1819,-0.0734 0.47956,-0.0734 0.66146,0 0.1819,0.0734 0.0331,0.133453 -0.33073,0.133453 -0.3638,0 -0.51263,-0.06006 -0.33073,-0.133453 z m 1.5875,0 c 0.1819,-0.0734 0.47956,-0.0734 0.66146,0 0.1819,0.0734 0.0331,0.133453 -0.33073,0.133453 -0.3638,0 -0.51263,-0.06006 -0.33073,-0.133453 z m -225.937626,-5.561761 c 0.19099,-0.07643 0.4192,-0.06703 0.50712,0.02088 0.0879,0.08792 -0.0684,0.150452 -0.34727,0.138964 -0.30822,-0.0127 -0.37092,-0.07539 -0.15985,-0.159851 z"
       id="path50" />
    <path
       style="fill:#6060fe;stroke-width:0.264583"
       d="m -210.05565,-116.43451 c 0.191,-0.0764 0.4192,-0.067 0.50712,0.0209 0.0879,0.0879 -0.0684,0.15045 -0.34726,0.13897 -0.30823,-0.0127 -0.37092,-0.0754 -0.15986,-0.15985 z m 6.08542,0 c 0.191,-0.0764 0.4192,-0.067 0.50712,0.0209 0.0879,0.0879 -0.0684,0.15045 -0.34727,0.13897 -0.30822,-0.0127 -0.37092,-0.0754 -0.15985,-0.15985 z m 13.29967,-1.5611 c 0.0127,-0.30823 0.0754,-0.37092 0.15985,-0.15986 0.0764,0.191 0.067,0.4192 -0.0209,0.50712 -0.0879,0.0879 -0.15045,-0.0684 -0.13896,-0.34726 z m -48.94792,-0.52917 c 0.0127,-0.30823 0.0754,-0.37092 0.15985,-0.15985 0.0764,0.19099 0.067,0.4192 -0.0209,0.50711 -0.0879,0.0879 -0.15045,-0.0684 -0.13896,-0.34726 z m -73.62467,-0.29098 c 0.191,-0.0764 0.4192,-0.067 0.50712,0.0209 0.0879,0.0879 -0.0684,0.15045 -0.34726,0.13897 -0.30823,-0.0127 -0.37092,-0.0754 -0.15986,-0.15985 z m 5.82084,0 c 0.19099,-0.0764 0.41919,-0.067 0.50711,0.0209 0.0879,0.0879 -0.0684,0.15045 -0.34726,0.13897 -0.30823,-0.0127 -0.37092,-0.0754 -0.15985,-0.15985 z m 32.44861,-2.00208 -1.04588,-1.12448 1.12448,1.04589 c 1.04575,0.97266 1.24606,1.20307 1.04588,1.20307 -0.0432,0 -0.54924,-0.50601 -1.12448,-1.12448 z m 35.09063,-0.0882 c 0.0127,-0.30823 0.0754,-0.37092 0.15986,-0.15985 0.0764,0.19099 0.067,0.4192 -0.0209,0.50711 -0.0879,0.0879 -0.15045,-0.0684 -0.13896,-0.34726 z m -6.59369,-0.63941 c 0,-0.3638 0.06,-0.51263 0.13345,-0.33073 0.0734,0.1819 0.0734,0.47956 0,0.66146 -0.0734,0.1819 -0.13345,0.0331 -0.13345,-0.33073 z m 25.72996,-0.0662 -0.50403,-0.59531 0.59531,0.50403 c 0.55945,0.47366 0.71577,0.6866 0.50403,0.6866 -0.0502,0 -0.3181,-0.2679 -0.59531,-0.59532 z m -38.25676,-0.37917 c 0.19099,-0.0764 0.4192,-0.067 0.50712,0.0209 0.0879,0.0879 -0.0684,0.15045 -0.34727,0.13897 -0.30823,-0.0127 -0.37092,-0.0754 -0.15985,-0.15985 z m 68.0433,-1.19591 c -0.0704,-0.82991 -0.0316,-1.41207 0.0864,-1.29368 0.11795,0.11839 0.17558,0.79741 0.12807,1.50893 l -0.0864,1.29369 z m 6.74716,-32.62231 c -1e-5,-18.77219 0.0315,-26.49074 0.07,-17.15234 0.0385,9.3384 0.0385,24.69747 2e-5,34.13125 -0.0385,9.43379 -0.0701,1.79327 -0.0701,-16.97891 z m -23.72588,33.55363 c 0.191,-0.0764 0.4192,-0.067 0.50712,0.0209 0.0879,0.0879 -0.0684,0.15045 -0.34727,0.13896 -0.30822,-0.0127 -0.37092,-0.0754 -0.15985,-0.15985 z m 3.68763,0.006 c 0.1819,-0.0734 0.47956,-0.0734 0.66146,0 0.1819,0.0734 0.0331,0.13345 -0.33073,0.13345 -0.3638,0 -0.51263,-0.0601 -0.33073,-0.13345 z m -35.79376,-16.49352 c 0,-7.93088 0.0337,-11.17534 0.0748,-7.20989 0.0412,3.96544 0.0412,10.45435 0,14.41979 -0.0412,3.96544 -0.0748,0.72099 -0.0748,-7.2099 z m 44.45887,12.96459 c 0.26339,-0.29105 0.53842,-0.52917 0.61118,-0.52917 0.0728,0 -0.0832,0.23812 -0.3466,0.52917 -0.26339,0.29104 -0.53842,0.52916 -0.61118,0.52916 -0.0728,0 0.0832,-0.23812 0.3466,-0.52916 z m -97.49897,-0.62907 c 0,-0.0549 0.20836,-0.2633 0.46303,-0.46302 0.41964,-0.32911 0.429,-0.31975 0.0999,0.0999 -0.34564,0.44073 -0.56292,0.58089 -0.56292,0.36312 z m 14.0745,-4.00114 c 0.005,-0.43657 0.0647,-0.58313 0.13178,-0.3257 0.0671,0.25743 0.0627,0.61462 -0.01,0.79375 -0.0725,0.17913 -0.12736,-0.0315 -0.12197,-0.46805 z m 6.89965,-1.19063 c 0,-0.65484 0.0516,-0.92273 0.11466,-0.59531 0.0631,0.32742 0.0631,0.8632 0,1.19062 -0.0631,0.32743 -0.11466,0.0595 -0.11466,-0.59531 z m -6.88984,-0.52916 c 0,-0.50933 0.0544,-0.71769 0.121,-0.46303 0.0666,0.25467 0.0666,0.67138 0,0.92605 -0.0666,0.25466 -0.121,0.0463 -0.121,-0.46302 z m 51.55325,-4.91684 c 0.0127,-0.30823 0.0754,-0.37092 0.15985,-0.15986 0.0764,0.191 0.067,0.4192 -0.0209,0.50712 -0.0879,0.0879 -0.15046,-0.0683 -0.13897,-0.34726 z m -19.27409,-0.63941 c 0,-0.50933 0.0544,-0.71769 0.121,-0.46303 0.0666,0.25467 0.0666,0.67138 0,0.92605 -0.0666,0.25466 -0.121,0.0463 -0.121,-0.46302 z m 55.80748,-0.52917 c 0,-0.3638 0.06,-0.51263 0.13345,-0.33073 0.0734,0.1819 0.0734,0.47956 0,0.66146 -0.0734,0.1819 -0.13345,0.0331 -0.13345,-0.33073 z m -29.65422,-0.15434 c 0.0127,-0.30823 0.0754,-0.37092 0.15985,-0.15985 0.0764,0.19099 0.067,0.41919 -0.0209,0.50712 -0.0879,0.0879 -0.15045,-0.0684 -0.13896,-0.34727 z m -112.44792,-0.52917 c 0.0127,-0.30822 0.0754,-0.37092 0.15985,-0.15985 0.0764,0.19099 0.067,0.4192 -0.0209,0.50712 -0.0879,0.0879 -0.15045,-0.0683 -0.13896,-0.34727 z m 45.50833,-0.52916 c 0.0127,-0.30823 0.0754,-0.37092 0.15985,-0.15986 0.0764,0.191 0.067,0.4192 -0.0209,0.50712 -0.0879,0.0879 -0.15045,-0.0683 -0.13897,-0.34726 z m 59.86391,-2.22691 c 0,-1.09141 0.0467,-1.53789 0.10378,-0.99219 0.0571,0.5457 0.0571,1.43867 0,1.98437 -0.0571,0.54571 -0.10378,0.0992 -0.10378,-0.99218 z m -30.97907,-0.44697 c 0.25467,-0.0665 0.67139,-0.0665 0.92605,0 0.25466,0.0666 0.0463,0.121 -0.46302,0.121 -0.50933,0 -0.71769,-0.0545 -0.46303,-0.121 z m -28.88484,-1.55946 c 0.0127,-0.30822 0.0754,-0.37092 0.15985,-0.15985 0.0764,0.19099 0.067,0.4192 -0.0209,0.50712 -0.0879,0.0879 -0.15045,-0.0684 -0.13897,-0.34727 z m -67.96722,-1.03628 c 0.005,-0.43657 0.0647,-0.58313 0.13177,-0.3257 0.0671,0.25743 0.0627,0.61462 -0.01,0.79375 -0.0725,0.17913 -0.12737,-0.0315 -0.12197,-0.46805 z m 134.90681,-0.8158 c 0.0127,-0.30823 0.0754,-0.37092 0.15985,-0.15985 0.0764,0.19099 0.067,0.41919 -0.0209,0.50712 -0.0879,0.0879 -0.15045,-0.0684 -0.13896,-0.34727 z m -41.87467,-1.34932 c 0.191,-0.0764 0.4192,-0.067 0.50712,0.0209 0.0879,0.0879 -0.0684,0.15045 -0.34726,0.13896 -0.30823,-0.0127 -0.37092,-0.0754 -0.15986,-0.15985 z m 2.6293,-0.25907 c 0.1819,-0.0734 0.47956,-0.0734 0.66146,0 0.1819,0.0734 0.0331,0.13345 -0.33073,0.13345 -0.3638,0 -0.51263,-0.06 -0.33073,-0.13345 z m 13.13079,-2.99977 c 0,-1.67349 0.043,-2.3581 0.0955,-1.52135 0.0525,0.83674 0.0525,2.20596 0,3.0427 -0.0525,0.83675 -0.0955,0.15214 -0.0955,-1.52135 z m 55.74791,1.96233 c 0.0127,-0.30823 0.0754,-0.37092 0.15985,-0.15986 0.0764,0.191 0.067,0.4192 -0.0209,0.50712 -0.0879,0.0879 -0.15046,-0.0684 -0.13897,-0.34726 z m -49.47708,-7.40834 c 0.0127,-0.30822 0.0754,-0.37092 0.15985,-0.15985 0.0764,0.19099 0.067,0.4192 -0.0209,0.50712 -0.0879,0.0879 -0.15045,-0.0684 -0.13896,-0.34727 z m -111.14589,0.0545 c 0,-0.0549 0.20836,-0.2633 0.46302,-0.46302 0.41964,-0.32911 0.429,-0.31975 0.0999,0.0999 -0.34564,0.44073 -0.56291,0.58089 -0.56291,0.36313 z m 25.13541,-2.14907 c 0.79043,-0.80036 1.49667,-1.4552 1.56943,-1.4552 0.0728,0 -0.51442,0.65484 -1.30484,1.4552 -0.79042,0.80037 -1.49667,1.45521 -1.56943,1.45521 -0.0728,0 0.51442,-0.65484 1.30484,-1.45521 z m 32.39901,0.0661 -1.04588,-1.12448 1.12448,1.04589 c 0.61846,0.57523 1.12448,1.08125 1.12448,1.12447 0,0.20018 -0.23041,-1.2e-4 -1.20308,-1.04588 z m -55.94692,0.49542 c 0,-0.0549 0.20836,-0.2633 0.46302,-0.46302 0.41964,-0.32911 0.429,-0.31975 0.0999,0.0999 -0.34564,0.44073 -0.56291,0.58089 -0.56291,0.36313 z m 82.28542,-2.38125 c 0,-0.0549 0.20835,-0.2633 0.46302,-0.46302 0.41964,-0.32911 0.429,-0.31975 0.0999,0.0999 -0.34564,0.44073 -0.56291,0.58089 -0.56291,0.36313 z m 46.0375,-1.32292 c 0,-0.0549 0.20836,-0.2633 0.46302,-0.46302 0.41964,-0.32911 0.429,-0.31975 0.0999,0.0999 -0.34564,0.44072 -0.56291,0.58088 -0.56291,0.36312 z m -130.96876,-0.79375 c 0,-0.0549 0.20836,-0.2633 0.46302,-0.46302 0.41965,-0.32911 0.42901,-0.31975 0.0999,0.0999 -0.34564,0.44072 -0.56292,0.58088 -0.56292,0.36312 z m 145.47123,-0.61001 c 0.191,-0.0764 0.4192,-0.067 0.50712,0.0209 0.0879,0.0879 -0.0684,0.15045 -0.34727,0.13896 -0.30822,-0.0127 -0.37092,-0.0754 -0.15985,-0.15985 z m 3.68763,0.005 c 0.1819,-0.0734 0.47956,-0.0734 0.66146,0 0.1819,0.0734 0.0331,0.13346 -0.33073,0.13346 -0.3638,0 -0.51263,-0.0601 -0.33073,-0.13346 z m -57.67917,-0.26458 c 0.1819,-0.0734 0.47956,-0.0734 0.66146,0 0.1819,0.0734 0.0331,0.13345 -0.33073,0.13345 -0.3638,0 -0.51263,-0.0601 -0.33073,-0.13345 z m 4.77904,-0.005 c 0.19099,-0.0764 0.4192,-0.067 0.50712,0.0209 0.0879,0.0879 -0.0684,0.15045 -0.34727,0.13897 -0.30822,-0.0127 -0.37092,-0.0754 -0.15985,-0.15985 z m -94.27435,-1.14218 c 0.26339,-0.29104 0.53842,-0.52917 0.61118,-0.52917 0.0728,0 -0.0832,0.23813 -0.3466,0.52917 -0.26339,0.29104 -0.53842,0.52917 -0.61118,0.52917 -0.0728,0 0.0832,-0.23813 0.3466,-0.52917 z m 131.36563,0.42927 c 0,-0.0549 0.20836,-0.2633 0.46302,-0.46302 0.41964,-0.32911 0.429,-0.31975 0.0999,0.0999 -0.34564,0.44072 -0.56291,0.58088 -0.56291,0.36312 z m -92.9349,-1.13367 c 0.1819,-0.0734 0.47956,-0.0734 0.66146,0 0.1819,0.0734 0.0331,0.13346 -0.33073,0.13346 -0.3638,0 -0.51263,-0.0601 -0.33073,-0.13346 z m 3.31233,-0.008 c 0.25743,-0.0671 0.61461,-0.0627 0.79375,0.01 0.17913,0.0725 -0.0315,0.12736 -0.46806,0.12197 -0.43656,-0.005 -0.58313,-0.0647 -0.32569,-0.13177 z m -46.85086,-1.53644 c 0.005,-0.43656 0.0647,-0.58312 0.13178,-0.32569 0.0671,0.25743 0.0627,0.61462 -0.01,0.79375 -0.0725,0.17913 -0.12736,-0.0315 -0.12197,-0.46806 z m -6.64527,-0.8158 c 0.0127,-0.30822 0.0754,-0.37092 0.15985,-0.15985 0.0764,0.19099 0.067,0.4192 -0.0209,0.50712 -0.0879,0.0879 -0.15045,-0.0683 -0.13896,-0.34727 z m 100.73575,-1.34931 c 0.191,-0.0764 0.4192,-0.067 0.50712,0.0209 0.0879,0.0879 -0.0684,0.15046 -0.34726,0.13897 -0.30823,-0.0127 -0.37092,-0.0754 -0.15986,-0.15985 z m 6.61459,0 c 0.19099,-0.0764 0.4192,-0.067 0.50712,0.0209 0.0879,0.0879 -0.0684,0.15046 -0.34727,0.13897 -0.30823,-0.0127 -0.37092,-0.0754 -0.15985,-0.15985 z m 46.56666,0 c 0.191,-0.0764 0.4192,-0.067 0.50712,0.0209 0.0879,0.0879 -0.0683,0.15046 -0.34726,0.13897 -0.30823,-0.0127 -0.37092,-0.0754 -0.15986,-0.15985 z m 5.82084,0 c 0.19099,-0.0764 0.4192,-0.067 0.50712,0.0209 0.0879,0.0879 -0.0684,0.15046 -0.34727,0.13897 -0.30823,-0.0127 -0.37092,-0.0754 -0.15985,-0.15985 z"
       id="path48" />
    <path
       style="fill:#fe4b4b;stroke-width:0.264583"
       d="m -308.62948,-26.484949 c 0.40019,-0.06062 1.05503,-0.06062 1.45521,0 0.40018,0.06062 0.0728,0.110223 -0.7276,0.110223 -0.80037,0 -1.12779,-0.0496 -0.72761,-0.110223 z m 75.40626,0 c 0.40018,-0.06062 1.05502,-0.06062 1.4552,0 0.40019,0.06062 0.0728,0.110223 -0.7276,0.110223 -0.80037,0 -1.12779,-0.0496 -0.7276,-0.110223 z m 53.71041,0 c 0.40019,-0.06062 1.05503,-0.06062 1.45521,0 0.40018,0.06062 0.0728,0.110223 -0.7276,0.110223 -0.80037,0 -1.12779,-0.0496 -0.72761,-0.110223 z m 96.445366,-0.0021 c 0.47556,-0.05888 1.18993,-0.05767 1.5875,0.0027 0.39759,0.06037 0.008,0.108551 -0.86464,0.107066 -0.87312,-0.0016 -1.1984,-0.05088 -0.72286,-0.109766 z m -240.159376,-1.550088 c 0.0127,-0.308226 0.0754,-0.370919 0.15985,-0.159853 0.0764,0.190995 0.067,0.419201 -0.0209,0.507119 -0.0879,0.08792 -0.15045,-0.06835 -0.13897,-0.347266 z m 3.64953,-2.160891 c -0.32911,-0.419645 -0.31975,-0.429004 0.0999,-0.0999 0.44073,0.345643 0.58088,0.562917 0.36312,0.562917 -0.0549,0 -0.2633,-0.20836 -0.46302,-0.463021 z m 221.985406,-1.5875 c -0.32909,-0.419645 -0.31975,-0.429004 0.0999,-0.0999 0.44071,0.345643 0.58089,0.562917 0.36311,0.562917 -0.0549,0 -0.26328,-0.20836 -0.46302,-0.463021 z m 14.65199,-0.248531 c 0.25466,-0.06655 0.67138,-0.06655 0.92604,0 0.25467,0.06655 0.0463,0.121002 -0.46302,0.121002 -0.50932,0 -0.71768,-0.05445 -0.46302,-0.121002 z m -150.151036,-0.257427 c 0.1819,-0.0734 0.47955,-0.0734 0.66146,0 0.1819,0.0734 0.0331,0.133453 -0.33073,0.133453 -0.36381,0 -0.51263,-0.06006 -0.33073,-0.133453 z m 1.32291,0 c 0.1819,-0.0734 0.47956,-0.0734 0.66146,0 0.1819,0.0734 0.0331,0.133453 -0.33073,0.133453 -0.3638,0 -0.51263,-0.06006 -0.33073,-0.133453 z m 51.87487,-0.0055 c 0.191,-0.07643 0.41921,-0.06703 0.50712,0.02088 0.0879,0.08792 -0.0683,0.150452 -0.34726,0.138964 -0.30823,-0.0127 -0.37092,-0.07539 -0.15986,-0.159851 z m 2.11667,0 c 0.191,-0.07643 0.4192,-0.06703 0.50712,0.02088 0.0879,0.08792 -0.0683,0.150452 -0.34727,0.138964 -0.30822,-0.0127 -0.37091,-0.07539 -0.15985,-0.159851 z m -38.97643,-0.613018 c 0.26339,-0.291042 0.53842,-0.529167 0.61118,-0.529167 0.0728,0 -0.0832,0.238125 -0.3466,0.529167 -0.26339,0.291041 -0.53842,0.529166 -0.61118,0.529166 -0.0728,0 0.0832,-0.238125 0.3466,-0.529166 z m -6.21771,-2.481146 c 0,-0.05494 0.20836,-0.263301 0.46302,-0.463021 0.41965,-0.329108 0.429,-0.319749 0.0999,0.0999 -0.34565,0.440729 -0.56292,0.580887 -0.56292,0.363125 z m -106.49916,-34.163645 c -10e-6,-16.880417 0.0317,-23.824993 0.0705,-15.432384 0.0388,8.392604 0.0388,22.203854 2e-5,30.691666 -0.0387,8.48781 -0.0705,1.621134 -0.0705,-15.259282 z m 230.721036,28.178124 -3.439586,-0.156546 3.357826,-0.05402 c 2.01364,-0.03239 3.42329,0.0519 3.52134,0.210566 0.0899,0.145521 0.12674,0.240276 0.0818,0.210566 -0.045,-0.02971 -1.62957,-0.124465 -3.52134,-0.210566 z m -224.478076,-7.827256 c 0.0127,-0.308226 0.0754,-0.370919 0.15985,-0.159853 0.0764,0.190995 0.067,0.4192 -0.0209,0.507119 -0.0879,0.08792 -0.15045,-0.06835 -0.13897,-0.347266 z m 68.52709,-0.529166 c 0.0127,-0.308227 0.0754,-0.37092 0.15985,-0.159854 0.0764,0.190995 0.067,0.419201 -0.0209,0.507119 -0.0879,0.08792 -0.15045,-0.06835 -0.13896,-0.347265 z m 54.26047,-0.110244 c 0,-0.363803 0.0601,-0.512631 0.13345,-0.33073 0.0734,0.181901 0.0734,0.479558 0,0.661459 -0.0734,0.181901 -0.13345,0.03307 -0.13345,-0.330729 z m -47.38131,-0.15434 c 0.0127,-0.308226 0.0754,-0.370919 0.15986,-0.159853 0.0764,0.190995 0.067,0.4192 -0.0209,0.507119 -0.0879,0.08792 -0.15045,-0.06835 -0.13896,-0.347266 z m 54.26048,-0.110244 c 0,-0.363802 0.06,-0.51263 0.13345,-0.330729 0.0734,0.181901 0.0734,0.479557 0,0.661458 -0.0734,0.181901 -0.13345,0.03307 -0.13345,-0.330729 z m 59.88635,-2.645833 c 0.26339,-0.291042 0.53842,-0.529167 0.61118,-0.529167 0.0728,0 -0.0832,0.238125 -0.3466,0.529167 -0.26339,0.291042 -0.53842,0.529167 -0.61118,0.529167 -0.0728,0 0.0832,-0.238125 0.3466,-0.529167 z m -66.78641,-1.741839 c 0.0127,-0.308227 0.0754,-0.37092 0.15985,-0.159854 0.0764,0.190995 0.067,0.419201 -0.0209,0.507119 -0.0879,0.08792 -0.15046,-0.06835 -0.13897,-0.347265 z m 6.90006,-0.110244 c 0,-0.363802 0.06,-0.512631 0.13345,-0.33073 0.0734,0.181902 0.0734,0.479558 0,0.661459 -0.0734,0.181901 -0.13345,0.03307 -0.13345,-0.330729 z m -61.13964,-0.418923 c 0.0127,-0.308226 0.0754,-0.370919 0.15985,-0.159853 0.0764,0.190994 0.067,0.4192 -0.0209,0.507119 -0.0879,0.08792 -0.15045,-0.06835 -0.13896,-0.347266 z m 6.87916,0 c 0.0127,-0.308226 0.0754,-0.370919 0.15986,-0.159853 0.0764,0.190994 0.067,0.4192 -0.0209,0.507119 -0.0879,0.08792 -0.15045,-0.06835 -0.13896,-0.347266 z m 108.98745,0.319027 c 0,-0.05494 0.20836,-0.263301 0.46302,-0.463021 0.41965,-0.329108 0.42901,-0.319749 0.0999,0.0999 -0.34565,0.44073 -0.56292,0.580887 -0.56292,0.363125 z m -184.37281,-0.693854 c 0,-0.363802 0.06,-0.512631 0.13345,-0.330729 0.0734,0.181901 0.0734,0.479557 0,0.661458 -0.0734,0.181901 -0.13345,0.03307 -0.13345,-0.330729 z m 113.22078,-0.94809 c 0.0127,-0.308226 0.0754,-0.370919 0.15985,-0.159853 0.0764,0.190995 0.067,0.419201 -0.0209,0.507119 -0.0879,0.08792 -0.15046,-0.06835 -0.13897,-0.347266 z m 75.78224,-3.285244 c 0.26339,-0.291041 0.53842,-0.529166 0.61118,-0.529166 0.0728,0 -0.0832,0.238125 -0.3466,0.529166 -0.26339,0.291042 -0.53842,0.529167 -0.61118,0.529167 -0.0728,0 0.0832,-0.238125 0.3466,-0.529167 z m 42.308196,-1.389062 -0.50403,-0.595313 0.59531,0.504029 c 0.55944,0.473662 0.71575,0.686596 0.50403,0.686596 -0.0502,0 -0.31811,-0.26789 -0.59531,-0.595312 z m -28.549866,-4.696354 c 0.71667,-0.727604 1.36256,-1.322917 1.43532,-1.322917 0.0728,0 -0.45407,0.595313 -1.17073,1.322917 -0.71667,0.727604 -1.36256,1.322917 -1.43532,1.322917 -0.0728,0 0.45407,-0.595313 1.17073,-1.322917 z m -7.8052,-0.132292 c 0.34177,-0.363802 0.68093,-0.661458 0.7537,-0.661458 0.0728,0 -0.14735,0.297656 -0.48912,0.661458 -0.34178,0.363802 -0.68094,0.661459 -0.7537,0.661459 -0.0728,0 0.14734,-0.297657 0.48912,-0.661459 z m -170.16084,-2.976562 c -0.32911,-0.419645 -0.31975,-0.429004 0.0999,-0.0999 0.25467,0.19972 0.46302,0.40808 0.46302,0.463021 0,0.217762 -0.21727,0.0776 -0.56291,-0.363125 z m -24.44858,-16.073437 c -4e-5,-8.44021 0.0334,-11.93129 0.0743,-7.75795 0.0409,4.17333 0.041,11.078957 7e-5,15.345832 -0.0409,4.266871 -0.0744,0.852326 -0.0744,-7.587882 z m 231.254206,14.684374 c 0.26339,-0.291041 0.53842,-0.529166 0.61119,-0.529166 0.0728,0 -0.0832,0.238125 -0.34661,0.529166 -0.26339,0.291042 -0.53843,0.529167 -0.61119,0.529167 -0.0728,0 0.0832,-0.238125 0.34661,-0.529167 z M -247.44458,-72.33292 c 0.56839,-0.582084 1.09297,-1.058334 1.16573,-1.058334 0.0728,0 -0.33276,0.47625 -0.90115,1.058334 -0.56838,0.582083 -1.09296,1.058333 -1.16572,1.058333 -0.0728,0 0.33275,-0.47625 0.90114,-1.058333 z m -44.88063,0.330729 c -0.3291,-0.419645 -0.31974,-0.429004 0.0999,-0.0999 0.44073,0.345643 0.58089,0.562917 0.36313,0.562917 -0.055,0 -0.2633,-0.20836 -0.46303,-0.463021 z m -16.03604,-0.520589 c 0.40218,-0.06082 0.99749,-0.05919 1.32291,0.0036 0.32542,0.0628 -0.004,0.112559 -0.73124,0.110575 -0.7276,-0.0021 -0.99386,-0.05337 -0.59167,-0.114186 z m 74.47657,0.01463 c 0.1819,-0.0734 0.47955,-0.0734 0.66146,0 0.1819,0.0734 0.0331,0.133454 -0.33073,0.133454 -0.36381,0 -0.51263,-0.06006 -0.33073,-0.133454 z m 2.66237,-0.0055 c 0.19099,-0.07643 0.4192,-0.06703 0.50712,0.02088 0.0879,0.08792 -0.0684,0.150452 -0.34727,0.138964 -0.30823,-0.0127 -0.37092,-0.07539 -0.15985,-0.15985 z m 51.59375,0 c 0.19099,-0.07643 0.4192,-0.06703 0.50712,0.02088 0.0879,0.08792 -0.0684,0.150452 -0.34727,0.138964 -0.30823,-0.0127 -0.37092,-0.07539 -0.15985,-0.15985 z m 2.38125,0 c 0.19099,-0.07643 0.4192,-0.06703 0.50712,0.02088 0.0879,0.08792 -0.0684,0.150452 -0.34727,0.138964 -0.30823,-0.0127 -0.37092,-0.07539 -0.15985,-0.15985 z m 55.87669,-0.480727 c 0.34178,-0.363802 0.68094,-0.661458 0.7537,-0.661458 0.0728,0 -0.14734,0.297656 -0.48911,0.661458 -0.34178,0.363802 -0.68094,0.661459 -0.7537,0.661459 -0.0728,0 0.14734,-0.297657 0.48911,-0.661459 z m 36.198306,0.216136 c 0.191,-0.07643 0.41921,-0.06703 0.50713,0.02088 0.0879,0.08792 -0.0684,0.150453 -0.34727,0.138965 -0.30824,-0.0127 -0.37092,-0.07539 -0.15986,-0.159851 z m 15.90458,-0.546865 -0.64143,-0.727604 0.72761,0.641432 c 0.40018,0.35279 0.7276,0.680212 0.7276,0.727604 0,0.207508 -0.21426,0.03862 -0.81378,-0.641432 z m -224.909556,-0.529166 c -0.32911,-0.419646 -0.31975,-0.429004 0.0999,-0.0999 0.44073,0.345644 0.58088,0.562917 0.36312,0.562917 -0.0549,0 -0.2633,-0.208359 -0.46302,-0.46302 z m -13.6534,-4.482833 c 0.25743,-0.06708 0.61462,-0.06267 0.79375,0.0098 0.17913,0.07248 -0.0315,0.127362 -0.46806,0.12197 -0.43656,-0.0054 -0.58312,-0.06469 -0.32569,-0.131773 z m 2.11667,0 c 0.25743,-0.06708 0.61461,-0.06267 0.79375,0.0098 0.17913,0.07248 -0.0315,0.127362 -0.46806,0.12197 -0.43656,-0.0054 -0.58313,-0.06469 -0.32569,-0.131773 z m 72.23125,0 c 0.25743,-0.06708 0.61462,-0.06267 0.79375,0.0098 0.17913,0.07248 -0.0315,0.127362 -0.46806,0.12197 -0.43656,-0.0054 -0.58312,-0.06469 -0.32569,-0.131773 z m 2.38125,0 c 0.25743,-0.06708 0.61462,-0.06267 0.79375,0.0098 0.17913,0.07248 -0.0315,0.127362 -0.46806,0.12197 -0.43656,-0.0054 -0.58312,-0.06469 -0.32569,-0.131773 z m 51.45642,0.0081 c 0.1819,-0.0734 0.47956,-0.0734 0.66146,0 0.1819,0.0734 0.0331,0.133453 -0.33073,0.133453 -0.3638,0 -0.51263,-0.06006 -0.33073,-0.133453 z m 2.25399,-0.0081 c 0.25744,-0.06708 0.61462,-0.06267 0.79375,0.0098 0.17914,0.07248 -0.0315,0.127362 -0.46805,0.12197 -0.43656,-0.0054 -0.58313,-0.06469 -0.3257,-0.131773 z m 92.863716,0.0011 c 0.25466,-0.06655 0.67138,-0.06655 0.92604,0 0.25467,0.06655 0.0463,0.121002 -0.46302,0.121002 -0.50932,0 -0.71768,-0.05445 -0.46302,-0.121002 z m 2.38628,-0.0011 c 0.25744,-0.06708 0.61463,-0.06267 0.79375,0.0098 0.17915,0.07248 -0.0315,0.127362 -0.46805,0.12197 -0.43656,-0.0054 -0.58311,-0.06469 -0.3257,-0.131773 z"
       id="path46" />
    <path
       style="fill:#fe0000;stroke-width:0.264583"
       d="m -312.92896,-26.957302 c -3.76866,-0.846288 -6.92824,-3.050442 -9.02664,-6.297072 l -1.02752,-1.589773 -0.004,3.017581 c -0.005,4.535821 0.26781,4.208208 -3.50957,4.208208 h -3.1869 l 0.1746,-8.532812 c 0.096,-4.693047 0.17481,-21.004609 0.17505,-36.247916 l 4.5e-4,-27.715104 h 3.17285 3.17285 l 0.0683,15.24581 0.0683,15.24581 1.00879,-1.464797 c 2.33566,-3.391471 6.04401,-5.814327 10.236,-6.687719 2.88154,-0.600361 7.55417,-0.540927 10.13367,0.128897 6.12943,1.591641 10.83068,6.070671 13.30384,12.674991 1.26044,3.3659 1.70429,5.787287 1.87575,10.233049 0.52903,13.717066 -5.14176,24.133082 -14.86222,27.29871 -1.81574,0.591328 -2.68089,0.702051 -6.08541,0.77883 -2.80748,0.06331 -4.47197,-0.02349 -5.68855,-0.296693 z m 10.68482,-6.557134 c 5.93076,-2.816503 9.15474,-9.693836 9.15787,-19.535409 0.003,-8.341749 -2.55997,-14.408195 -7.38116,-17.473226 -3.95105,-2.511851 -10.62319,-2.580971 -15.18462,-0.157306 -1.78084,0.94623 -4.14709,3.38142 -5.0859,5.23408 -3.29399,6.50036 -3.33419,19.241955 -0.0818,25.921689 0.99465,2.042806 3.74568,4.919679 5.50953,5.761564 2.32209,1.108332 3.89505,1.381101 7.54129,1.307754 3.36197,-0.06763 3.48767,-0.09173 5.52478,-1.059146 z m 64.85373,6.567654 c -6.42113,-1.474721 -11.19874,-5.314593 -14.1681,-11.387201 -3.1777,-6.498703 -3.95596,-14.90805 -2.06993,-22.366295 2.5463,-10.069266 9.69084,-16.548398 19.21007,-17.420949 12.41735,-1.138195 21.36039,5.904986 24.1473,19.017453 0.54216,2.550885 0.63007,8.811503 0.1662,11.8365 -1.57104,10.245077 -7.59907,17.725287 -16.17304,20.069215 -2.17346,0.594172 -8.95209,0.747453 -11.1125,0.251277 z m 9.64933,-5.863098 c 5.46497,-1.560819 9.12512,-6.193379 10.62149,-13.443381 0.73346,-3.553639 0.60065,-10.240785 -0.26806,-13.497689 -0.94303,-3.535511 -2.47802,-6.357485 -4.6291,-8.510251 -2.20746,-2.209192 -4.22943,-3.323328 -7.11176,-3.918691 -2.49697,-0.515763 -4.02741,-0.520793 -6.38665,-0.02098 -5.85261,1.239872 -9.5963,5.231996 -11.44569,12.205224 -0.61548,2.320684 -0.69489,3.127568 -0.71269,7.241884 -0.0238,5.508265 0.45484,7.915129 2.35113,11.821752 2.32135,4.782307 6.0463,7.72359 10.80185,8.529307 1.78476,0.302384 4.96355,0.111474 6.77948,-0.407165 z m 44.47785,5.977583 c -8.85289,-1.85335 -14.90195,-8.635896 -16.51105,-18.513144 -1.70256,-10.450922 0.30616,-19.3641 5.89243,-26.146082 1.13881,-1.382572 4.15449,-3.716721 5.97519,-4.624824 4.5092,-2.249024 11.2902,-2.756088 16.3975,-1.226153 6.27436,1.879536 11.01437,7.31943 12.26779,14.079198 l 0.23446,1.264433 -3.28682,-0.07381 -3.28682,-0.0738 -0.62606,-1.792854 c -0.79765,-2.284259 -1.98182,-4.126325 -3.56779,-5.549995 -1.67634,-1.504791 -3.30679,-2.276417 -5.88216,-2.783792 -4.63901,-0.913935 -9.22622,0.471712 -12.54349,3.788976 -6.03221,6.032211 -7.20524,19.965212 -2.44427,29.032379 1.2368,2.355461 3.97971,5.038418 6.16314,6.028433 5.08858,2.30727 11.25904,1.34651 14.92227,-2.323449 1.43279,-1.435422 3.73829,-5.334365 3.73829,-6.322004 0,-0.292394 0.66683,-0.366236 3.30729,-0.366236 3.7314,0 3.5892,-0.108175 2.81496,2.141392 -2.2507,6.539439 -6.48114,10.946172 -12.33996,12.854193 -1.82361,0.593887 -2.66615,0.700604 -6.08541,0.770782 -2.18282,0.0448 -4.49558,-0.02884 -5.13949,-0.16364 z m 95.979116,0.01619 c -6.05411,-1.09338 -10.5464,-4.234916 -12.875946,-9.004348 -0.60415,-1.236927 -1.26732,-2.993099 -1.47375,-3.902604 l -0.37529,-1.653646 h 3.292126 c 2.90248,0 3.30968,0.0548 3.44043,0.463021 0.63641,1.986926 2.10045,4.382283 3.41001,5.579145 2.60403,2.379924 5.45073,3.328244 9.87359,3.289157 7.66542,-0.06775 11.4936,-3.330279 11.10019,-9.460106 -0.32625,-5.083855 -2.94925,-6.907125 -14.08512,-9.79071 -8.31334,-2.1527 -12.68682,-4.873561 -14.18844,-8.827005 -0.78158,-2.057704 -0.967916,-5.48635 -0.41529,-7.641627 1.37065,-5.345724 5.18756,-8.702514 11.39084,-10.017689 2.84869,-0.603959 8.00934,-0.537165 10.86308,0.140597 6.55058,1.555761 11.08795,6.215137 12.1992,12.527256 l 0.17616,1.00058 -3.2434,-0.07454 -3.24337,-0.07454 -0.31458,-1.066837 c -0.77727,-2.635989 -2.84864,-5.024673 -5.46886,-6.306625 -4.39833,-2.151906 -12.37991,-1.178689 -14.64054,1.785168 -1.87005,2.451743 -1.96678,6.213472 -0.22029,8.565891 1.01537,1.367633 4.77732,3.023303 10.00337,4.402571 7.02246,1.853377 9.67327,2.866456 12.6116,4.819843 2.9962,1.991871 4.67402,4.570439 5.2319,8.040613 1.28098,7.968403 -2.92518,14.289664 -11.10094,16.683125 -1.60525,0.469937 -2.80644,0.595444 -6.34569,0.66304 -2.40109,0.04586 -4.92154,-0.01701 -5.60099,-0.139734 z m -190.984426,-37.05017 v -36.247913 h 6.61459 6.61458 v 36.247913 36.247916 h -6.61458 -6.61459 z m 130.96875,0 v -36.247913 h 3.30588 3.30588 l 0.0676,23.695165 0.0676,23.695164 3.69271,-3.917561 c 2.03099,-2.15466 7.26751,-7.638266 11.63671,-12.185792 l 7.94399,-8.268229 h 4.10394 4.10393 l -6.21656,6.283854 c -3.41911,3.45612 -7.74361,7.842766 -9.61001,9.748099 l -3.39346,3.464248 10.11672,14.130543 c 5.5642,7.771802 10.40978,14.5175 10.76797,14.990442 l 0.65124,0.859896 h -3.98009 -3.98008 l -9.06676,-12.837387 c -4.98672,-7.060562 -9.15542,-12.805328 -9.26377,-12.766146 -0.10835,0.03918 -1.8714,1.720771 -3.91789,3.736861 l -3.72088,3.66562 v 9.100526 9.100526 h -3.30729 -3.3073 z"
       id="path42" />
    <text
       style="font-style:normal;font-weight:normal;font-size:10.5833px;line-height:1.25;font-family:sans-serif;white-space:pre;shape-inside:url(#rect26);fill:#000000;fill-opacity:1;stroke:none;"
       id="text24"
       xml:space="preserve" />
    <path
       style="display:inline;fill:#0000fe;stroke-width:0.264583"
       d="m -265.92811,-116.89356 c -3.54729,-0.63613 -6.46798,-2.18493 -8.79372,-4.66317 -2.56716,-2.73553 -3.72427,-5.88889 -3.72167,-10.14229 0.005,-8.5082 4.80514,-13.30994 15.22808,-15.23383 1.69119,-0.31216 4.51932,-0.47824 9.75926,-0.57311 l 7.37802,-0.13357 -0.15139,-3.60526 c -0.2121,-5.05077 -0.80522,-6.95554 -2.74273,-8.80818 -2.21938,-2.12217 -5.34182,-2.99194 -10.00983,-2.78824 -5.9567,0.25991 -8.70944,2.10022 -10.23727,6.84397 l -0.58251,1.80863 h -3.22106 -3.22105 l 0.2329,-1.25677 c 1.19124,-6.42826 5.03289,-10.51151 11.56914,-12.29672 3.02237,-0.82548 10.06028,-0.82236 13.36407,0.006 4.63714,1.16257 8.06104,3.64357 9.65371,6.99518 1.54153,3.24401 1.6243,4.26776 1.62501,20.10111 5.3e-4,12.79755 0.2229,20.03572 0.68301,22.23616 l 0.15214,0.7276 h -3.16772 c -2.71696,0 -3.19188,-0.063 -3.33753,-0.44254 -0.0934,-0.2434 -0.29094,-1.70191 -0.43896,-3.24115 -0.14803,-1.53923 -0.29596,-2.89766 -0.32874,-3.01873 -0.0328,-0.12107 -0.52195,0.4512 -1.08705,1.27171 -1.92044,2.78838 -5.01149,4.85323 -8.74767,5.84355 -1.89314,0.50178 -7.86976,0.72596 -9.85644,0.3697 z m 9.28356,-5.67281 c 0.9946,-0.21073 2.45344,-0.67846 3.24185,-1.03941 1.77065,-0.81064 4.03063,-2.90959 4.93639,-4.58465 1.43742,-2.65832 2.31651,-7.29923 2.31651,-12.22942 v -2.12709 h -5.76163 c -7.96925,0 -11.75646,0.54807 -15.00496,2.17145 -5.46269,2.7299 -6.51183,11.23512 -1.90922,15.47767 1.40622,1.29622 2.33968,1.80848 4.21587,2.31359 1.82401,0.49107 5.69089,0.49974 7.96519,0.0178 z m 46.41548,5.69314 c -8.92608,-1.62983 -15.06132,-8.91978 -16.59693,-19.72059 -0.39435,-2.77377 -0.32532,-8.66498 0.13478,-11.5021 0.95179,-5.86894 3.39006,-10.95243 6.96632,-14.52393 2.60966,-2.60617 5.41032,-4.1834 9.32587,-5.252 2.34261,-0.63932 8.65927,-0.63315 11.08048,0.0108 3.63161,0.96591 6.44213,2.71724 8.14189,5.07346 l 0.5726,0.79375 0.008,-14.08906 0.008,-14.08906 h 3.3073 3.30729 l 0.001,32.87448 c 5.3e-4,18.08096 0.0785,34.39252 0.17312,36.24791 l 0.17205,3.37344 h -3.18276 -3.18276 l -0.16536,-0.82682 c -0.0909,-0.45475 -0.16535,-2.04225 -0.16535,-3.52778 0,-1.48551 -0.0792,-2.78017 -0.17605,-2.87698 -0.0968,-0.0968 -0.52891,0.44182 -0.96021,1.19698 -1.68042,2.94231 -4.99182,5.31721 -8.8124,6.32016 -2.34063,0.61445 -7.8564,0.90101 -9.9577,0.51733 z m 8.66157,-5.96514 c 6.45837,-1.36198 9.73916,-5.64474 10.99123,-14.34802 0.44023,-3.06007 0.18807,-12.52284 -0.40342,-15.13917 -1.17293,-5.18823 -3.75826,-8.21752 -8.20296,-9.61159 -2.65765,-0.83357 -8.26546,-0.81767 -10.56558,0.03 -4.69274,1.72935 -8.12029,5.89459 -9.72631,11.81962 -0.50202,1.8521 -0.57444,2.8112 -0.57938,7.67292 -0.005,4.90694 0.0621,5.80361 0.57374,7.67293 1.72056,6.28583 5.45709,10.55513 10.40177,11.88492 1.86042,0.50033 5.18705,0.50849 7.51091,0.0184 z m -160.20522,-19.70857 v -24.87083 h 3.13815 3.13815 l 0.16684,1.38906 c 0.0918,0.76398 0.16788,3.15746 0.16915,5.31884 l 0.002,3.92979 0.94641,-1.83983 c 2.62048,-5.09422 7.077,-8.33657 13.03362,-9.48265 3.21685,-0.61893 2.95329,-0.89255 2.95329,3.06604 v 3.43958 h -0.93996 c -1.69881,0 -4.7099,0.82308 -6.99754,1.91277 -4.00604,1.90824 -6.90033,5.56519 -8.26523,10.44314 -0.55622,1.98787 -0.58083,2.60711 -0.66831,16.8144 l -0.0908,14.75053 h -3.29303 -3.29303 z m 47.7573,23.16822 c -12.33642,-2.45119 -20.41724,-14.08406 -18.28038,-26.31576 0.81087,-4.64157 2.6749,-8.31623 5.96855,-11.76616 5.9694,-6.25263 14.16294,-8.56283 22.63058,-6.38076 6.05633,1.56069 11.71326,6.35451 14.54066,12.32211 1.51275,3.19287 2.05867,5.69033 2.07693,9.50152 0.031,6.47329 -2.07558,11.74278 -6.47732,16.20252 -4.23801,4.29386 -9.311,6.4961 -15.43194,6.69919 -2.06067,0.0684 -3.82503,-0.0238 -5.02708,-0.26266 z"
       id="path88" />
  </g>
  <g
     style="display:inline"
     inkscape:label="Work"
     inkscape:groupmode="layer"
     id="g96"
     transform="translate(379.95631,208.17609)">
    <text
       xml:space="preserve"
       id="text94"
       style="font-style:normal;font-weight:normal;font-size:10.5833px;line-height:1.25;font-family:sans-serif;white-space:pre;shape-inside:url(#rect98);fill:#000000;fill-opacity:1;stroke:none;" />
    <text
       transform="translate(-11.696916,18.498935)"
       xml:space="preserve"
       id="text24-4"
       style="font-style:normal;font-weight:normal;font-size:10.5833px;line-height:1.25;font-family:sans-serif;white-space:pre;shape-inside:url(#rect26-9);display:inline;fill:#000000;fill-opacity:1;stroke:none;" />
    <path
       id="path42-5"
       d="m -310.14112,-27.846847 c -3.76866,-0.846285 -6.92824,-3.050442 -9.02664,-6.29707 l -1.02752,-1.589773 -0.004,3.017581 c -0.005,4.535821 0.26781,4.208209 -3.50957,4.208209 h -3.1869 l 0.1746,-8.532813 c 0.096,-4.693047 0.17481,-21.004609 0.17505,-36.247916 l 5.3e-4,-27.715101 h 3.17285 3.17285 l 0.0683,15.245811 0.0683,15.245806 1.00879,-1.464797 c 2.33566,-3.391471 6.04401,-5.814327 10.236,-6.687719 2.88154,-0.600361 7.55417,-0.540928 10.13367,0.128897 6.12943,1.59164 10.83068,6.070671 13.30384,12.674991 1.26044,3.3659 1.70429,5.787287 1.87575,10.233049 0.52903,13.717066 -5.14176,24.133083 -14.86222,27.298708 -1.81574,0.591331 -2.68089,0.702054 -6.08541,0.77883 -2.80748,0.06331 -4.47197,-0.02349 -5.68855,-0.296693 z m 10.68482,-6.557131 c 5.93076,-2.816506 9.15474,-9.693839 9.15787,-19.53541 0.003,-8.341749 -2.55997,-14.408195 -7.38116,-17.473226 -3.95105,-2.511851 -10.62319,-2.580971 -15.18462,-0.157306 -1.78084,0.94623 -4.14709,3.38142 -5.0859,5.23408 -3.29399,6.50036 -3.33419,19.241955 -0.0818,25.921687 0.99465,2.042808 3.74568,4.919681 5.50953,5.761564 2.32209,1.108334 3.89505,1.381101 7.54129,1.307756 3.36197,-0.06763 3.48767,-0.09173 5.52478,-1.059145 z m 64.85373,6.567654 c -6.42113,-1.474722 -11.19874,-5.314596 -14.1681,-11.387204 -3.1777,-6.498701 -3.95596,-14.908048 -2.06993,-22.366293 2.5463,-10.069266 9.69084,-16.548399 19.21007,-17.420949 12.41735,-1.138196 21.36039,5.904986 24.1473,19.017453 0.54216,2.550885 0.63007,8.811504 0.1662,11.836498 -1.57104,10.245079 -7.59907,17.725289 -16.17304,20.069217 -2.17346,0.594173 -8.95209,0.747454 -11.1125,0.251278 z m 9.64933,-5.863101 c 5.46497,-1.560816 9.12512,-6.193377 10.62149,-13.443378 0.73346,-3.55364 0.60065,-10.240786 -0.26806,-13.49769 -0.94303,-3.535511 -2.47802,-6.357485 -4.6291,-8.510251 -2.20746,-2.209192 -4.22943,-3.323329 -7.11176,-3.918691 -2.49697,-0.515763 -4.02741,-0.520793 -6.38665,-0.02098 -5.85261,1.239872 -9.5963,5.231998 -11.44569,12.205224 -0.61548,2.320684 -0.69489,3.127568 -0.71269,7.241884 -0.0238,5.508265 0.45484,7.91513 2.35113,11.821753 2.32135,4.782306 6.0463,7.723589 10.80185,8.529307 1.78476,0.302384 4.96355,0.111474 6.77948,-0.407165 z m 44.47785,5.977583 c -8.85289,-1.853348 -14.90195,-8.635894 -16.51105,-18.513142 -1.70256,-10.450922 0.30616,-19.3641 5.89243,-26.146082 1.13881,-1.382572 4.15449,-3.716721 5.97519,-4.624824 4.5092,-2.249025 11.2902,-2.756088 16.3975,-1.226154 6.27436,1.879537 11.01437,7.319431 12.26779,14.079199 l 0.23446,1.264433 -3.28682,-0.07381 -3.28682,-0.0738 -0.62606,-1.792853 c -0.79765,-2.284259 -1.98182,-4.126326 -3.56779,-5.549996 -1.67634,-1.504791 -3.30679,-2.276416 -5.88216,-2.783792 -4.63901,-0.913934 -9.22622,0.471713 -12.54349,3.788976 -6.03221,6.032212 -7.20524,19.965213 -2.44427,29.03238 1.2368,2.355461 3.97971,5.038418 6.16314,6.028434 5.08858,2.307269 11.25904,1.346509 14.92227,-2.32345 1.43279,-1.435422 3.73829,-5.334365 3.73829,-6.322004 0,-0.292394 0.66683,-0.366236 3.30729,-0.366236 3.7314,0 3.5892,-0.108175 2.81496,2.141392 -2.2507,6.539439 -6.48114,10.946172 -12.33996,12.854194 -1.82361,0.593886 -2.66615,0.700603 -6.08541,0.770781 -2.18282,0.0448 -4.49558,-0.02884 -5.13949,-0.163639 z m 95.979102,0.01619 c -6.054087,-1.09338 -10.546387,-4.234918 -12.875927,-9.00435 -0.60415,-1.236927 -1.26732,-2.993099 -1.47376,-3.902605 l -0.37529,-1.653645 h 3.29213 c 2.90247,0 3.30969,0.0548 3.44042,0.46302 0.63643,1.986929 2.10045,4.382284 3.41003,5.579147 2.60403,2.379922 5.450707,3.328244 9.873587,3.289158 7.665403,-0.06775 11.49358,-3.330282 11.100171,-9.460109 -0.326232,-5.083855 -2.949231,-6.907125 -14.085121,-9.790708 -8.313337,-2.1527 -12.686797,-4.873561 -14.188427,-8.827005 -0.78158,-2.057704 -0.96792,-5.48635 -0.41529,-7.641627 1.37065,-5.345726 5.18757,-8.702516 11.390827,-10.017691 2.84869,-0.603959 8.009363,-0.537165 10.863079,0.140597 6.550581,1.555763 11.087974,6.215139 12.199224,12.527256 l 0.176159,1.00058 -3.243421,-0.07454 -3.243368,-0.07454 -0.314564,-1.066837 c -0.777266,-2.635989 -2.848636,-5.024673 -5.468858,-6.306625 -4.398354,-2.151906 -12.379928,-1.178689 -14.640558,1.785168 -1.87005,2.451743 -1.96678,6.213472 -0.22029,8.565891 1.01539,1.367634 4.777337,3.023303 10.003389,4.402571 7.022439,1.853377 9.673246,2.866456 12.611577,4.819843 2.996221,1.991871 4.674023,4.570439 5.231923,8.040614 1.280981,7.968403 -2.92518,14.289664 -11.100964,16.683124 -1.605227,0.469937 -2.806435,0.595445 -6.345687,0.663041 -2.401071,0.04586 -4.921541,-0.01701 -5.600991,-0.139734 z M -275.4807,-64.755825 v -36.247905 h 6.61459 6.61458 v 36.247905 36.247917 h -6.61458 -6.61459 z m 130.96875,0 v -36.247905 h 3.30588 3.30589 l 0.0676,23.695159 0.0676,23.695162 3.69271,-3.917561 c 2.03099,-2.154658 7.26751,-7.638264 11.63671,-12.18579 l 7.94399,-8.268229 h 4.10394 4.10393 l -6.21656,6.283854 c -3.41911,3.45612 -7.7436,7.842766 -9.61,9.748099 l -3.39347,3.464248 10.11672,14.130541 c 5.5642,7.771802 10.40978,14.517503 10.76797,14.990443 l 0.65124,0.859896 h -3.98009 -3.98008 l -9.06676,-12.837385 c -4.98672,-7.060563 -9.15542,-12.805331 -9.26376,-12.766149 -0.10836,0.03918 -1.87141,1.720773 -3.9179,3.736861 l -3.72088,3.665623 v 9.100523 9.100527 h -3.30729 -3.3073 z"
       style="display:inline;fill:#fe0000;stroke-width:0.264583" />
    <path
       id="path88-7"
       d="m -263.14027,-117.7831 c -3.54729,-0.63614 -6.46798,-2.18494 -8.79372,-4.66317 -2.56716,-2.73554 -3.72427,-5.8889 -3.72167,-10.1423 0.005,-8.5082 4.80514,-13.30994 15.22808,-15.23383 1.69119,-0.31216 4.51932,-0.47824 9.75926,-0.57311 l 7.37802,-0.13357 -0.15139,-3.60526 c -0.2121,-5.05077 -0.80522,-6.95554 -2.74273,-8.80818 -2.21938,-2.12217 -5.34182,-2.99194 -10.00983,-2.78824 -5.9567,0.25991 -8.70944,2.10022 -10.23727,6.84397 l -0.58251,1.80863 h -3.22106 -3.22105 l 0.2329,-1.25677 c 1.19124,-6.42826 5.03289,-10.51151 11.56914,-12.29672 3.02237,-0.82548 10.06028,-0.82236 13.36407,0.006 4.63714,1.16257 8.06104,3.64357 9.65371,6.99518 1.54153,3.24401 1.6243,4.26776 1.62501,20.10111 5.3e-4,12.79755 0.2229,20.03572 0.68301,22.23616 l 0.15214,0.7276 h -3.16772 c -2.71696,0 -3.19188,-0.063 -3.33753,-0.44254 -0.0934,-0.2434 -0.29094,-1.70191 -0.43896,-3.24115 -0.14803,-1.53923 -0.29596,-2.89766 -0.32874,-3.01873 -0.0328,-0.12107 -0.52195,0.4512 -1.08705,1.27171 -1.92044,2.78838 -5.01149,4.85323 -8.74767,5.84355 -1.89314,0.50178 -7.86976,0.72596 -9.85644,0.3697 z m 9.28356,-5.67282 c 0.9946,-0.21073 2.45344,-0.67845 3.24185,-1.03941 1.77065,-0.81064 4.03063,-2.90959 4.93639,-4.58465 1.43742,-2.65832 2.31651,-7.29923 2.31651,-12.22942 v -2.12709 h -5.76163 c -7.96925,0 -11.75646,0.54807 -15.00496,2.17145 -5.46269,2.72991 -6.51183,11.23512 -1.90922,15.47767 1.40622,1.29622 2.33968,1.80848 4.21587,2.31359 1.82401,0.49107 5.69089,0.49974 7.96519,0.0178 z m 46.41548,5.69314 c -8.92608,-1.62982 -15.06132,-8.91978 -16.59693,-19.72059 -0.39435,-2.77377 -0.32532,-8.66498 0.13478,-11.5021 0.95179,-5.86894 3.39006,-10.95243 6.96632,-14.52393 2.60966,-2.60617 5.41032,-4.1834 9.32587,-5.252 2.34261,-0.63932 8.65927,-0.63315 11.08048,0.0108 3.63161,0.96591 6.44213,2.71724 8.14189,5.07346 l 0.5726,0.79375 0.008,-14.08906 0.008,-14.08906 h 3.3073 3.30729 l 0.001,32.87448 c 5.3e-4,18.08096 0.0785,34.39252 0.17312,36.24791 l 0.17205,3.37344 h -3.18276 -3.18276 l -0.16536,-0.82682 c -0.0909,-0.45475 -0.16535,-2.04225 -0.16535,-3.52778 0,-1.48551 -0.0792,-2.78017 -0.17605,-2.87698 -0.0968,-0.0968 -0.52891,0.44183 -0.96021,1.19698 -1.68042,2.94231 -4.99182,5.31722 -8.8124,6.32016 -2.34063,0.61445 -7.8564,0.90101 -9.9577,0.51734 z m 8.66157,-5.96514 c 6.45837,-1.36198 9.73916,-5.64474 10.99123,-14.34802 0.44023,-3.06006 0.18807,-12.52284 -0.40342,-15.13917 -1.17293,-5.18823 -3.75826,-8.21752 -8.20296,-9.61159 -2.65765,-0.83357 -8.26546,-0.81767 -10.56558,0.03 -4.69274,1.72936 -8.12029,5.8946 -9.72631,11.81962 -0.50202,1.8521 -0.57444,2.8112 -0.57938,7.67292 -0.005,4.90694 0.0621,5.80362 0.57374,7.67293 1.72056,6.28583 5.45709,10.55513 10.40177,11.88493 1.86042,0.50033 5.18705,0.50848 7.51091,0.0184 z m -160.20522,-19.70857 v -24.87083 h 3.13815 3.13815 l 0.16684,1.38906 c 0.0918,0.76398 0.16788,3.15746 0.16915,5.31884 l 0.002,3.92979 0.94641,-1.83983 c 2.62047,-5.09422 7.07699,-8.33657 13.03361,-9.48265 3.21685,-0.61893 2.95329,-0.89255 2.95329,3.06604 v 3.43958 h -0.93996 c -1.69881,0 -4.7099,0.82308 -6.99754,1.91277 -4.00604,1.90824 -6.90033,5.56519 -8.26523,10.44314 -0.55622,1.98787 -0.58083,2.60711 -0.66831,16.8144 l -0.0908,14.75053 h -3.29303 -3.29303 z m 47.7573,23.16822 c -12.33642,-2.45119 -20.41724,-14.08406 -18.28038,-26.31576 0.81087,-4.64157 2.6749,-8.31623 5.96855,-11.76616 5.9694,-6.25263 14.16294,-8.56283 22.63058,-6.38076 6.05633,1.56069 11.71326,6.35451 14.54066,12.32211 1.51275,3.19287 2.05867,5.69033 2.07693,9.50152 0.031,6.47329 -2.07558,11.74278 -6.47732,16.20252 -4.23801,4.29386 -9.311,6.4961 -15.43194,6.6992 -2.06067,0.0684 -3.82503,-0.0238 -5.02708,-0.26267 z"
       style="display:inline;fill:#0000fe;stroke-width:0.264583" />
  </g>
</svg>
